<svg width="32" height="32" viewBox="0 0 32 32" fill="none" xmlns="http://www.w3.org/2000/svg">
<path opacity="0.3" d="M22.666 10.6665C18.2477 10.6665 14.666 14.2482 14.666 18.6665C14.666 23.0848 18.2477 26.6665 22.666 26.6665C27.0843 26.6665 30.666 23.0848 30.666 18.6665C30.666 14.2482 27.0843 10.6665 22.666 10.6665Z" fill="#C1C1BE"/>
<path d="M1.33398 7.99967H30.6673V5.33301H1.33398V7.99967Z" fill="#C1C1BE"/>
<path d="M21.334 21.9997V19.9997H19.334V17.333H21.334V15.333H24.0007V17.333H26.0007V19.9997H24.0007V21.9997H21.334Z" fill="#C1C1BE"/>
<path d="M12.0007 15.333H1.33398V12.6663H12.0007V15.333Z" fill="#C1C1BE"/>
<path d="M1.33398 23.333H12.0007V20.6663H1.33398V23.333Z" fill="#C1C1BE"/>
</svg>
