<svg width="146" height="74" viewBox="0 0 146 74" fill="none" xmlns="http://www.w3.org/2000/svg">
<path fill-rule="evenodd" clip-rule="evenodd" d="M65.9592 31.2271C65.9461 31.1701 65.799 31.2518 65.7863 31.1948C65.6924 30.7756 65.9896 30.8043 66.7478 25.9106C67.071 23.8248 67.8603 24.4237 69.9697 24.4247C86.5121 24.4333 86.8136 24.3003 86.9771 24.9082C87.2897 26.07 88.0545 30.4641 88.1391 30.9487C88.3965 32.4283 86.1959 28.5574 83.337 28.6988C80.2375 28.8518 80.9896 30.1187 81.0698 33.2269C81.1344 35.7346 81.6987 57.6055 81.7167 64.5747C81.7354 71.797 82.8249 71.5876 83.4323 73.2232C83.7512 74.0813 82.9609 73.7948 71.9814 73.8355C70.4821 73.8412 72.8075 71.7163 72.9004 68.2402C72.9128 67.7787 73.4149 30.5555 72.6544 29.2196C72.2706 28.545 69.9961 28.8171 69.9596 28.8241C68.2046 29.1556 66.7464 30.8583 66.5325 31.1084C66.3413 31.1481 66.15 31.1874 65.9592 31.2271Z" fill="#C1C1BE"/>
<path fill-rule="evenodd" clip-rule="evenodd" d="M141.172 24.9946C143.638 24.8459 143.945 24.9983 143.737 25.5202C141.724 30.5572 141.616 30.6729 141.161 30.6233C140.293 30.5285 140.71 27.7337 134.822 27.8811C130.282 27.9948 128.797 34.7773 132.923 37.4097C138.92 41.2359 147.703 43.3534 145.512 54.2355C142.942 67.0041 120.602 64.4237 124.71 52.875C125.623 50.3069 129.319 47.8016 128.146 50.5727C125.253 57.4082 136.388 62.1794 138.889 53.5843C140.162 49.2115 135.025 46.391 134.41 46.0532C133.696 45.661 122.083 41.4963 124.196 31.2448C124.883 27.9095 130.331 20.9917 138.765 24.3887C139.939 24.8616 139.922 24.8162 141.172 24.9946Z" fill="#C1C1BE"/>
<path fill-rule="evenodd" clip-rule="evenodd" d="M37.802 47.5683C37.803 57.5207 37.4457 57.8642 38.242 58.1617C39.0382 58.4591 43.6044 57.9929 45.5068 56.1295C46.6207 55.0387 46.0497 57.6594 45.4433 61.2226C45.1518 62.9346 44.4394 62.5288 38.2122 62.5288C30.1213 62.5288 29.1211 62.7122 29.7205 61.8568C31.179 59.7746 30.4209 57.6244 30.4175 38.2305C30.4155 27.6425 30.1053 26.8529 29.7453 25.9355C29.3602 24.9548 28.7808 24.4359 29.8278 24.4122C31.1055 24.3839 45.3637 24.0644 45.8017 24.6397C45.9808 24.8747 45.573 30.7128 44.8864 30.6488C44.3946 30.6031 43.9423 28.9788 41.5551 28.9574C39.6152 28.9404 37.5537 28.5889 37.544 29.8941C37.4714 39.5107 37.7405 39.8865 38.5465 39.8962C42.5249 39.9439 42.5761 39.8852 43.956 38.9998C44.861 38.4186 44.5688 40.5828 44.6069 43.5664C44.6089 43.7091 44.6293 45.3151 44.2325 45.3097C43.8427 45.3044 43.1795 43.9465 38.5478 44.2503C37.2815 44.333 37.785 46.7047 37.802 47.5683Z" fill="#C1C1BE"/>
<path fill-rule="evenodd" clip-rule="evenodd" d="M114.485 36.2294C114.492 36.6496 114.06 39.5571 115.434 39.5714C118.499 39.6035 119.199 39.6638 120.544 38.7211C121.906 37.767 121.232 39.2473 121.345 41.2365C121.348 41.2968 121.889 45.3485 120.802 44.8569C120.048 44.5168 119.816 43.6394 115.431 43.8315C114.405 43.8765 114.645 44.3984 114.646 52.2363C114.646 56.9999 114.163 58.2367 116.102 58.2154C121.77 58.1527 123.385 54.2958 123.067 56.2402C122.064 62.3731 121.973 62.4204 121.756 62.4858C121.198 62.6529 118.227 62.4331 107.077 62.5685C105.73 62.5848 107.337 61.2506 107.415 59.2395C107.558 55.581 107.298 49.067 107.26 36.8977C107.23 26.989 106.888 26.34 106.463 25.5334C106.071 24.7884 105.894 24.3986 106.724 24.3989C107.958 24.3996 121.996 24.4079 122.148 24.4363C123.043 24.6037 122.536 25.0462 122.066 29.8792C121.925 31.3371 120.754 28.5073 118.445 28.5023C116.153 28.4973 114.384 28.1308 114.389 29.56C114.391 30.0936 114.401 33.0168 114.485 36.2294Z" fill="#C1C1BE"/>
<path fill-rule="evenodd" clip-rule="evenodd" d="M98.72 57.9465C99.2491 57.8984 103.353 57.5256 105.003 55.7979C105.968 54.7865 105.577 56.8303 105.558 56.9294C104.794 60.917 105.148 62.5 103.398 62.5407C102.302 62.566 95.3332 62.7277 89.6941 62.5633C88.616 62.532 89.9879 61.1391 90.0728 59.2417C90.2075 56.2338 89.9749 37.0923 89.8087 28.2193C89.7726 26.2902 88.408 24.7109 89.0693 24.3864C89.5931 24.1293 96.75 24.3861 97.4176 24.4098C98.4756 24.4478 97.8508 24.9617 97.4884 25.9321C96.7296 27.9652 97.2945 29.2441 97.3781 54.9042C97.3848 56.915 96.6985 57.7684 98.72 57.9465Z" fill="#C1C1BE"/>
<path d="M0.775391 0.683594C2.00498 0.677932 1.99687 0.71906 16.1484 0.719727C24.0646 0.720149 26.0392 5.59718 26.9277 11.2051C28.5639 21.5331 24.002 26.7972 23.1064 27.8301C21.7392 28.9669 21.3283 29.2988 21.9414 29.749C33.6925 38.3762 27.9384 54.779 26.1191 57.5342C21.7537 64.1448 15.1254 62.2051 1.10645 62.5596C1.03792 62.5612 0.0925962 62.585 0.632812 61.8467C3.77625 57.5498 2.14725 56.9324 2.13086 8.88574C2.12952 5.46235 2.30064 4.0378 0.22168 1.46875C-0.231222 0.908897 0.0359615 0.686928 0.775391 0.683594ZM19.7041 53.5449C21.1151 45.9247 21.0655 29.7165 11.8359 32.9844C10.4322 33.4812 10.5961 34.5775 10.7305 36.2305C10.7214 55.4053 10.564 55.7004 11.874 56.8145C13.4395 58.1457 18.6838 59.0532 19.7041 53.5449ZM18.6133 10.8682C17.3844 1.22133 11.1148 5.61044 10.8711 5.93457C10.0175 7.07333 10.4638 25.171 10.6162 25.4961C11.2129 26.7679 19.9773 31.0988 18.8398 13.8877C18.7823 13.1194 18.9004 13.1231 18.6133 10.8682Z" fill="#C1C1BE"/>
<path fill-rule="evenodd" clip-rule="evenodd" d="M72.3102 8.08135C70.9206 8.26409 71.2779 9.21715 71.3177 13.2204C71.3291 14.3649 72.1367 14.9652 70.9948 15.0022C70.4181 15.0208 67.6562 15.1846 67.6589 14.5523C67.6839 8.53987 67.818 8.57822 67.812 2.54976C67.8103 0.68867 67.245 0.113766 68.2927 0.114433C68.5063 0.114433 71.4354 -0.0759751 71.4551 0.517267C71.4664 0.866409 71.2191 0.8494 71.303 4.88371C71.3401 6.67111 73.3967 6.77982 73.4144 4.88405C73.4194 4.3665 73.4508 1.71242 73.3248 1.21321C72.9062 -0.441794 73.9452 0.118435 75.6538 0.119435C76.7085 0.119769 77.0341 0.151783 76.894 1.20121C76.8613 1.44564 76.7804 13.3475 76.9395 13.8987C77.4078 15.5227 76.3491 15.0018 74.6506 14.9995C73.7941 14.9982 73.0854 15.2846 73.3896 13.9014C73.4388 13.6773 73.8085 8.3798 73.0146 8.1257C72.9607 8.10836 72.9624 8.12237 72.3102 8.08135Z" fill="#C1C1BE"/>
<path fill-rule="evenodd" clip-rule="evenodd" d="M84.7085 8.0778C82.1111 7.64929 82.6667 9.17525 82.7145 12.5513C82.7355 14.0466 85.5195 12.9595 85.675 12.8714C87.6272 11.764 86.1192 14.7852 85.9989 14.8636C85.6302 15.1037 79.4615 15 79.301 14.9376C78.7026 14.7038 79.9151 8.18951 78.9908 0.548394C78.9233 -0.0101671 79.2676 -0.127211 86.0303 0.129893C86.8597 0.16124 86.4004 1.75122 86.3606 1.88861C86.1239 2.70861 85.7662 1.51579 83.352 1.63351C82.2659 1.6862 82.7626 5.67115 82.8342 5.7892C83.2189 6.42246 83.3998 6.05964 85.3447 5.85923C85.5155 5.84156 85.9163 5.80021 86.0383 7.88672C86.0922 8.80777 85.5947 8.36092 84.7085 8.0778Z" fill="#C1C1BE"/>
<path fill-rule="evenodd" clip-rule="evenodd" d="M63.2746 9.88577C63.291 14.4143 63.9329 14.9815 62.9641 15.0019C62.6997 15.0075 59.6131 15.2009 59.6526 14.5533C59.7134 13.5466 60.371 2.69617 59.554 1.94687C58.627 1.09685 56.5159 3.1697 56.6022 2.21497C56.6176 2.04457 56.7727 0.329207 57.2537 0.180479C57.2694 0.175811 65.7661 -0.0752896 66.1579 0.334544C66.5758 0.772056 66.882 3.25073 65.9102 2.32169C64.9795 1.43199 63.7901 1.86583 63.6621 1.94787C63.1653 2.26666 63.2743 2.88625 63.2746 9.88577Z" fill="#C1C1BE"/>
<path d="M54.2432 24.4092C62.3554 24.3275 62.3773 24.1825 63.0039 24.4951C63.5498 24.7679 61.9569 26.2602 62.3086 28.2236C62.4478 28.9983 68.6554 57.5385 69.4521 59.5117C69.866 60.5361 70.5471 61.4059 70.6641 61.5557C71.8072 63.0146 69.8694 62.5342 69.6367 62.5303C62.8108 62.4309 61.8877 62.9596 62.2461 61.8965C63.0995 59.3641 63.1465 59.2771 61.9541 54.5693C61.6532 53.3829 60.5843 53.7058 55.5977 53.7178C54.0519 53.7214 54.2759 54.9089 54.168 55.2197C52.8442 60.298 53.4257 60.3789 54.2236 61.9219C54.4927 62.4427 54.0943 62.9354 46.9092 62.5576C45.978 62.5084 47.496 61.131 48.0078 58.9316C48.1846 58.1729 54.4988 28.7597 54.5332 28.2217C54.6973 25.4424 52.5455 24.4263 54.2432 24.4092ZM60.3213 47.2256C58.3058 38.6874 58.6091 37.9412 57.9756 38.3193C57.6337 38.5295 55.7699 48.0519 55.6035 48.9033C55.405 49.9206 57.7255 49.6742 59.9473 49.6582C61.5536 49.6464 60.6325 48.8191 60.3213 47.2256Z" fill="#C1C1BE"/>
</svg>
