<svg width="23" height="60" viewBox="0 0 23 60" fill="none" xmlns="http://www.w3.org/2000/svg">
<path d="M5.18038 7.91769C6.08038 8.11769 6.98038 8.51769 7.78038 9.01769C6.58038 7.01769 5.88038 6.11769 4.28038 4.31769C3.78038 3.71769 3.68038 2.91769 4.08038 2.51769C4.48038 2.11769 5.38037 2.31769 5.88037 3.01769C7.48037 4.91769 8.18038 5.91769 9.48038 7.91769C9.28038 6.91769 9.18038 5.91769 9.28038 4.91769C9.48038 2.51769 10.6804 0.917691 11.4804 0.117691C11.7804 -0.182309 12.3804 0.117692 12.6804 0.717692C13.4804 2.31769 14.6804 5.31769 14.2804 7.81769C13.8804 9.91769 12.5804 11.1177 11.5804 11.7177C12.5804 13.7177 12.9804 14.7177 13.6804 16.8177C13.7804 15.8177 13.8804 14.9177 14.2804 13.9177C15.0804 11.6177 16.6804 10.4177 17.5804 9.91769C17.8804 9.71769 18.3804 10.1177 18.5804 10.7177C18.9804 12.4177 19.3804 15.5177 18.3804 17.8177C17.4804 19.8177 15.8804 20.6177 14.8804 20.9177C15.3804 23.0177 15.4804 24.1177 15.6804 26.2177C15.9804 25.3177 16.3804 24.4177 16.8804 23.6177C18.1804 21.6177 20.0804 20.8177 21.0804 20.5177C21.4804 20.4177 21.8804 20.9177 21.8804 21.5177C21.8804 23.2177 21.4804 26.3177 19.9804 28.3177C18.6804 30.0177 16.9804 30.4177 15.7804 30.5177C15.7804 32.6177 15.6804 33.7177 15.3804 35.8177C15.8804 35.0177 16.4804 34.2177 17.1804 33.5177C18.8804 31.9177 20.8804 31.5177 21.9804 31.5177C22.3804 31.5177 22.5804 32.1177 22.4804 32.7177C22.1804 34.5177 21.0804 37.5177 19.1804 39.0177C17.4804 40.3177 15.7804 40.4177 14.5804 40.2177C14.0804 42.3177 13.6804 43.3177 12.8804 45.3177C13.5804 44.6177 14.2804 44.0177 15.1804 43.5177C17.2804 42.3177 19.2804 42.4177 20.2804 42.6177C20.6804 42.7177 20.7804 43.3177 20.4804 43.9177C19.7804 45.4177 17.9804 48.1177 15.7804 49.2177C13.8804 50.1177 12.0804 49.7177 11.0804 49.3177C10.0804 51.2177 9.48038 52.2177 8.18038 54.0177C8.98038 53.5177 9.88038 53.0177 10.8804 52.7177C13.1804 52.0177 15.1804 52.6177 16.0804 53.1177C16.3804 53.3177 16.3804 53.9177 15.9804 54.4177C14.8804 55.7177 12.4804 58.0177 10.0804 58.5177C7.98038 59.0177 6.38037 58.2177 5.38037 57.6177C4.68037 58.3177 4.38038 58.7177 3.68038 59.4177C3.08038 60.0177 2.18038 60.1177 1.78038 59.7177C1.38038 59.3177 1.58038 58.5177 2.18038 57.9177C2.88038 57.2177 3.18038 56.9177 3.78038 56.2177C3.08038 55.4177 2.08037 53.9177 1.88037 52.0177C1.58037 49.8177 2.18038 47.7177 2.58038 46.5177C2.68038 46.1177 3.18038 45.9177 3.48038 46.1177C4.38038 46.7177 6.08038 47.9177 6.58038 50.1177C6.78038 51.0177 6.78038 52.0177 6.58038 52.9177C7.78038 51.2177 8.38038 50.3177 9.28038 48.4177C8.38038 47.8177 7.08037 46.6177 6.38037 44.8177C5.58037 42.8177 5.68038 40.6177 5.68038 39.4177C5.68038 39.0177 6.08038 38.7177 6.48038 38.8177C7.48038 39.1177 9.38038 39.9177 10.3804 41.9177C10.7804 42.7177 10.9804 43.6177 10.9804 44.6177C11.7804 42.7177 12.0804 41.7177 12.5804 39.7177C11.4804 39.3177 9.98037 38.5177 8.88037 36.9177C7.58037 35.2177 7.18038 33.0177 6.98038 31.9177C6.88038 31.5177 7.18038 31.1177 7.58038 31.1177C8.68038 31.2177 10.6804 31.5177 12.0804 33.2177C12.6804 33.9177 13.0804 34.7177 13.2804 35.6177C13.5804 33.6177 13.6804 32.6177 13.6804 30.5177C12.5804 30.4177 10.8804 29.9177 9.48038 28.7177C7.88038 27.3177 6.88038 25.3177 6.48038 24.3177C6.28038 23.9177 6.48037 23.5177 6.88037 23.4177C7.88037 23.2177 9.98038 23.1177 11.7804 24.4177C12.4804 24.9177 13.0804 25.7177 13.5804 26.5177C13.3804 24.5177 13.2804 23.5177 12.7804 21.5177C11.6804 21.6177 9.88038 21.5177 8.28038 20.7177C6.38038 19.7177 4.98038 18.0177 4.28038 17.0177C3.98038 16.7177 4.08038 16.2177 4.48038 16.0177C5.48038 15.6177 7.48038 15.0177 9.48038 15.9177C10.2804 16.3177 11.0804 16.9177 11.6804 17.5177C11.0804 15.5177 10.6804 14.6177 9.68038 12.7177C8.58038 13.1177 6.88038 13.4177 5.08038 12.9177C2.98038 12.3177 1.18038 10.9177 0.280376 10.2177C-0.0196236 9.91769 -0.119624 9.41769 0.180376 9.21769C1.18038 8.61769 2.98038 7.51769 5.18038 7.91769Z" fill="#474746"/>
</svg>
