<svg width="23" height="60" viewBox="0 0 23 60" fill="none" xmlns="http://www.w3.org/2000/svg">
<path d="M17.3255 7.91769C16.4255 8.11769 15.5255 8.51769 14.7255 9.01769C15.9255 7.01769 16.6255 6.11769 18.2255 4.31769C18.7255 3.71769 18.8255 2.91769 18.4255 2.51769C18.0255 2.11769 17.1255 2.31769 16.6255 3.01769C15.0255 4.91769 14.3255 5.91769 13.0255 7.91769C13.2255 6.91769 13.3255 5.91769 13.2255 4.91769C13.0255 2.51769 11.8255 0.917691 11.0255 0.117691C10.7255 -0.182309 10.1255 0.117692 9.82548 0.717692C9.02548 2.31769 7.82548 5.31769 8.22548 7.81769C8.62548 9.91769 9.92548 11.1177 10.9255 11.7177C9.92548 13.7177 9.52548 14.7177 8.82548 16.8177C8.72548 15.8177 8.62548 14.9177 8.22548 13.9177C7.42548 11.6177 5.82548 10.4177 4.92548 9.91769C4.62548 9.71769 4.12548 10.1177 3.92548 10.7177C3.52548 12.4177 3.12548 15.5177 4.12548 17.8177C5.02548 19.8177 6.62548 20.6177 7.62548 20.9177C7.12548 23.0177 7.02548 24.1177 6.82548 26.2177C6.52548 25.3177 6.12548 24.4177 5.62548 23.6177C4.32548 21.6177 2.42548 20.8177 1.42548 20.5177C1.02548 20.4177 0.625484 20.9177 0.625484 21.5177C0.625484 23.2177 1.02548 26.3177 2.52548 28.3177C3.82548 30.0177 5.52548 30.4177 6.72548 30.5177C6.72548 32.6177 6.82548 33.7177 7.12548 35.8177C6.62548 35.0177 6.02548 34.2177 5.32548 33.5177C3.62548 31.9177 1.62548 31.5177 0.525483 31.5177C0.125483 31.5177 -0.0745166 32.1177 0.0254834 32.7177C0.325483 34.5177 1.42548 37.5177 3.32548 39.0177C5.02548 40.3177 6.72548 40.4177 7.92548 40.2177C8.42548 42.3177 8.82548 43.3177 9.62548 45.3177C8.92548 44.6177 8.22548 44.0177 7.32548 43.5177C5.22548 42.3177 3.22548 42.4177 2.22548 42.6177C1.82548 42.7177 1.72548 43.3177 2.02548 43.9177C2.72548 45.4177 4.52548 48.1177 6.72548 49.2177C8.62548 50.1177 10.4255 49.7177 11.4255 49.3177C12.4255 51.2177 13.0255 52.2177 14.3255 54.0177C13.5255 53.5177 12.6255 53.0177 11.6255 52.7177C9.32548 52.0177 7.32548 52.6177 6.42548 53.1177C6.12548 53.3177 6.12548 53.9177 6.52548 54.4177C7.62548 55.7177 10.0255 58.0177 12.4255 58.5177C14.5255 59.0177 16.1255 58.2177 17.1255 57.6177C17.8255 58.3177 18.1255 58.7177 18.8255 59.4177C19.4255 60.0177 20.3255 60.1177 20.7255 59.7177C21.1255 59.3177 20.9255 58.5177 20.3255 57.9177C19.6255 57.2177 19.3255 56.9177 18.7255 56.2177C19.4255 55.4177 20.4255 53.9177 20.6255 52.0177C20.9255 49.8177 20.3255 47.7177 19.9255 46.5177C19.8255 46.1177 19.3255 45.9177 19.0255 46.1177C18.1255 46.7177 16.4255 47.9177 15.9255 50.1177C15.7255 51.0177 15.7255 52.0177 15.9255 52.9177C14.7255 51.2177 14.1255 50.3177 13.2255 48.4177C14.1255 47.8177 15.4255 46.6177 16.1255 44.8177C16.9255 42.8177 16.8255 40.6177 16.8255 39.4177C16.8255 39.0177 16.4255 38.7177 16.0255 38.8177C15.0255 39.1177 13.1255 39.9177 12.1255 41.9177C11.7255 42.7177 11.5255 43.6177 11.5255 44.6177C10.7255 42.7177 10.4255 41.7177 9.92548 39.7177C11.0255 39.3177 12.5255 38.5177 13.6255 36.9177C14.9255 35.2177 15.3255 33.0177 15.5255 31.9177C15.6255 31.5177 15.3255 31.1177 14.9255 31.1177C13.8255 31.2177 11.8255 31.5177 10.4255 33.2177C9.82548 33.9177 9.42548 34.7177 9.22548 35.6177C8.92548 33.6177 8.82548 32.6177 8.82548 30.5177C9.92548 30.4177 11.6255 29.9177 13.0255 28.7177C14.6255 27.3177 15.6255 25.3177 16.0255 24.3177C16.2255 23.9177 16.0255 23.5177 15.6255 23.4177C14.6255 23.2177 12.5255 23.1177 10.7255 24.4177C10.0255 24.9177 9.42548 25.7177 8.92548 26.5177C9.12548 24.5177 9.22548 23.5177 9.72548 21.5177C10.8255 21.6177 12.6255 21.5177 14.2255 20.7177C16.1255 19.7177 17.5255 18.0177 18.2255 17.0177C18.5255 16.7177 18.4255 16.2177 18.0255 16.0177C17.0255 15.6177 15.0255 15.0177 13.0255 15.9177C12.2255 16.3177 11.4255 16.9177 10.8255 17.5177C11.4255 15.5177 11.8255 14.6177 12.8255 12.7177C13.9255 13.1177 15.6255 13.4177 17.4255 12.9177C19.5255 12.3177 21.3255 10.9177 22.2255 10.2177C22.5255 9.91769 22.6255 9.41769 22.3255 9.21769C21.3255 8.61769 19.5255 7.51769 17.3255 7.91769Z" fill="#474746"/>
</svg>
