<svg width="24" height="24" viewBox="0 0 24 24" fill="none" xmlns="http://www.w3.org/2000/svg">
<path d="M10.6618 9.29387C11.2218 9.00324 11.8593 8.89662 12.4835 8.98918C13.1202 9.0836 13.7097 9.38028 14.1648 9.83541C14.6199 10.2905 14.9166 10.88 15.011 11.5167C15.1036 12.1409 14.997 12.7783 14.7063 13.3384C14.4157 13.8985 13.9559 14.3527 13.3922 14.6364C12.8286 14.9201 12.1898 15.0189 11.5669 14.9186C10.9439 14.8184 10.3683 14.5242 9.92214 14.0781C9.47595 13.6319 9.18181 13.0563 9.08156 12.4333C8.98131 11.8103 9.08006 11.1716 9.36376 10.608C9.64745 10.0443 10.1017 9.58449 10.6618 9.29387Z" fill="#C1C1BE"/>
<path fill-rule="evenodd" clip-rule="evenodd" d="M7 1C3.68629 1 1 3.68629 1 7V17C1 20.3137 3.68629 23 7 23H17C20.3137 23 23 20.3137 23 17V7C23 3.68629 20.3137 1 17 1H7ZM17.5002 5.5C16.9479 5.5 16.5002 5.94772 16.5002 6.5C16.5002 7.05228 16.9479 7.5 17.5002 7.5H17.5102C18.0625 7.5 18.5102 7.05228 18.5102 6.5C18.5102 5.94772 18.0625 5.5 17.5102 5.5H17.5002ZM12.7769 7.01082C11.7366 6.85655 10.6741 7.03424 9.74061 7.51862C8.80711 8.00299 8.05011 8.76938 7.57729 9.70878C7.10446 10.6482 6.93988 11.7128 7.10696 12.7511C7.27404 13.7894 7.76428 14.7486 8.50793 15.4923C9.25158 16.2359 10.2108 16.7262 11.2491 16.8932C12.2874 17.0603 13.352 16.8957 14.2914 16.4229C15.2308 15.9501 15.9972 15.1931 16.4816 14.2596C16.966 13.3261 17.1436 12.2636 16.9894 11.2233C16.832 10.1622 16.3376 9.17975 15.579 8.4212C14.8204 7.66265 13.838 7.16817 12.7769 7.01082Z" fill="#C1C1BE"/>
</svg>
