<svg width="48" height="48" viewBox="0 0 48 48" fill="none" xmlns="http://www.w3.org/2000/svg">
<circle cx="24" cy="24" r="24" transform="rotate(-90 24 24)" fill="url(#paint0_linear_405_3861)"/>
<path opacity="0.2" d="M0.822265 23.4009C1.13994 10.8722 11.3957 0.812988 24.001 0.812987L24.5996 0.8208C37.1282 1.13847 47.1873 11.3944 47.1875 23.9995L47.1797 24.5981C46.8673 36.928 36.9294 46.8656 24.5996 47.1782L24.001 47.186C11.1955 47.186 0.814453 36.805 0.814452 23.9995L0.822265 23.4009ZM1.31445 23.9995C1.31445 36.5289 11.4716 46.686 24.001 46.686C36.5302 46.6859 46.6875 36.5288 46.6875 23.9995C46.6873 11.4704 36.5301 1.31315 24.001 1.31299C11.4717 1.31299 1.31461 11.4703 1.31445 23.9995ZM2.03516 23.9995C2.03542 11.8683 11.8697 2.03286 24.001 2.03271L24.5684 2.04053C36.4376 2.34132 45.9675 12.0578 45.9678 23.9995L45.96 24.5659C45.6594 36.4356 35.9431 45.9653 24.001 45.9653C11.8697 45.9652 2.03531 36.1308 2.03516 23.9995ZM2.53516 23.9995C2.53531 35.8547 12.1458 45.4652 24.001 45.4653C35.8563 45.4653 45.4676 35.8548 45.4678 23.9995C45.4675 12.1443 35.8562 2.53271 24.001 2.53271C12.1459 2.53286 2.53542 12.1444 2.53516 23.9995ZM3.26074 23.4644C3.54477 12.2543 12.7215 3.25439 24 3.25439L24.5352 3.26123C35.7451 3.54526 44.7449 12.7211 44.7451 23.9995L44.7383 24.5356C44.4586 35.5676 35.5672 44.4593 24.5352 44.7388L24 44.7456C12.5424 44.7456 3.25391 35.4571 3.25391 23.9995L3.26074 23.4644ZM3.75391 23.9995C3.75391 35.1809 12.8186 44.2456 24 44.2456C35.1813 44.2454 44.2451 35.1808 44.2451 23.9995C44.2449 12.8184 35.1812 3.75457 24 3.75439C12.8187 3.75439 3.75409 12.8182 3.75391 23.9995ZM4.47461 24.0005C4.47461 13.2169 13.2164 4.47511 24 4.4751C34.7836 4.4751 43.5254 13.2169 43.5254 24.0005C43.5251 34.7838 34.7834 43.5259 24 43.5259C13.2166 43.5259 4.47489 34.7838 4.47461 24.0005ZM4.97461 24.0005C4.97489 34.5077 13.4927 43.0259 24 43.0259C34.5073 43.0259 43.0251 34.5077 43.0254 24.0005C43.0254 13.493 34.5074 4.9751 24 4.9751C13.4926 4.97511 4.97461 13.493 4.97461 24.0005ZM5.69531 24.0005C5.69531 13.891 13.8906 5.69504 24 5.69482L24.4727 5.70068C34.364 5.95117 42.3057 14.0488 42.3057 24.0005L42.2998 24.4722C42.0493 34.3636 33.9517 42.3052 24 42.3052C13.8907 42.305 5.69559 34.1097 5.69531 24.0005ZM6.19531 24.0005C6.19559 33.8336 14.1669 41.805 24 41.8052C33.8333 41.8052 41.8054 33.8337 41.8057 24.0005C41.8057 14.167 33.8335 6.19482 24 6.19482C14.1667 6.19504 6.19531 14.1671 6.19531 24.0005ZM6.92187 23.5601C7.1556 14.3281 14.7127 6.91553 24.001 6.91553L24.4414 6.92139C33.6733 7.15511 41.0858 14.7123 41.0859 24.0005L41.0801 24.4419C40.8495 33.527 33.5266 40.8496 24.4414 41.0796L24.001 41.0854C14.5655 41.0854 6.91628 33.4359 6.91601 24.0005L6.92187 23.5601ZM7.41601 24.0005C7.41628 33.1598 14.8416 40.5854 24.001 40.5854C33.1602 40.5853 40.5857 33.1597 40.5859 24.0005C40.5858 14.8412 33.1603 7.41564 24.001 7.41553C14.8415 7.41553 7.41613 14.8411 7.41601 24.0005ZM8.13476 24.0005C8.13476 15.2389 15.2374 8.13631 23.999 8.13623C32.7607 8.13623 39.8633 15.2388 39.8633 24.0005C39.8629 32.7619 32.7605 39.8647 23.999 39.8647C15.2376 39.8647 8.13511 32.7618 8.13476 24.0005ZM8.63476 24.0005C8.63511 32.4857 15.5138 39.3647 23.999 39.3647C32.4843 39.3647 39.3629 32.4857 39.3633 24.0005C39.3633 15.515 32.4845 8.63623 23.999 8.63623C15.5136 8.63631 8.63476 15.515 8.63476 24.0005ZM9.36035 23.6216C9.56105 15.7088 16.0388 9.35596 24 9.35596L24.3779 9.36084C32.2906 9.56153 38.6433 16.0385 38.6436 23.9995L38.6387 24.3784C38.4411 32.1655 32.165 38.4416 24.3779 38.6392L24 38.644C15.9123 38.644 9.35547 32.0872 9.35547 23.9995L9.36035 23.6216ZM9.85547 23.9995C9.85547 31.8111 16.1884 38.144 24 38.144C31.8113 38.1438 38.1436 31.8109 38.1436 23.9995C38.1433 16.1883 31.8112 9.85621 24 9.85596C16.1886 9.85596 9.85572 16.1882 9.85547 23.9995ZM10.582 23.6528C10.7662 16.3996 16.7043 10.5757 24.002 10.5757L24.3486 10.5806C31.6019 10.7645 37.4255 16.702 37.4258 23.9995L37.4209 24.3462C37.24 31.4845 31.4869 37.2384 24.3486 37.4194L24.002 37.4233C16.5882 37.4233 10.5781 31.4132 10.5781 23.9995L10.582 23.6528ZM11.0781 23.9995C11.0781 31.1371 16.8644 36.9233 24.002 36.9233C31.1395 36.9233 36.9258 31.1371 36.9258 23.9995C36.9255 16.8622 31.1393 11.0757 24.002 11.0757C16.8646 11.0757 11.0784 16.8622 11.0781 23.9995ZM11.7969 24.0005C11.7969 17.2608 17.2604 11.7965 24 11.7964L24.3154 11.8013C30.9095 11.9684 36.2041 17.3661 36.2041 24.0005L36.1992 24.3149C36.032 30.909 30.6344 36.2036 24 36.2036C17.2606 36.2035 11.7973 30.7398 11.7969 24.0005ZM12.2969 24.0005C12.2973 30.4637 17.5368 35.7035 24 35.7036C30.4634 35.7036 35.7037 30.4637 35.7041 24.0005C35.7041 17.5369 30.4636 12.2964 24 12.2964C17.5365 12.2965 12.2969 17.537 12.2969 24.0005ZM13.0322 23.4351C13.3262 17.6318 18.1246 13.0171 24.001 13.0171L24.5654 13.0308C30.3686 13.3247 34.9832 18.1233 34.9834 23.9995L34.9697 24.5649C34.6851 30.181 30.1816 34.6838 24.5654 34.9683L24.001 34.9829C17.9352 34.9829 13.0176 30.0653 13.0176 23.9995L13.0322 23.4351ZM13.5176 23.9995C13.5176 29.7891 18.2113 34.4829 24.001 34.4829C29.7904 34.4827 34.4834 29.789 34.4834 23.9995C34.4832 18.2102 29.7903 13.5173 24.001 13.5171C18.2115 13.5171 13.5178 18.21 13.5176 23.9995ZM14.2383 24.0005C14.2383 18.6087 18.6092 14.2378 24.001 14.2378C29.3928 14.2378 33.7637 18.6087 33.7637 24.0005C33.7635 29.3921 29.3926 33.7632 24.001 33.7632C18.6093 33.7632 14.2385 29.3921 14.2383 24.0005ZM14.7383 24.0005C14.7385 29.116 18.8855 33.2632 24.001 33.2632C29.1165 33.2632 33.2635 29.116 33.2637 24.0005C33.2637 18.8848 29.1166 14.7378 24.001 14.7378C18.8853 14.7378 14.7383 18.8848 14.7383 24.0005ZM15.459 24.0005C15.459 19.2828 19.2833 15.4577 24.001 15.4575L24.4414 15.4692C28.9547 15.6983 32.5439 19.4303 32.5439 24.0005L32.5322 24.4399C32.3031 28.9531 28.5711 32.5425 24.001 32.5425C19.2836 32.5423 15.4595 28.7178 15.459 24.0005ZM15.959 24.0005C15.9595 28.4416 19.5598 32.0423 24.001 32.0425C28.4424 32.0425 32.0435 28.4418 32.0439 24.0005C32.0439 19.5588 28.4427 15.9575 24.001 15.9575C19.5595 15.9577 15.959 19.5589 15.959 24.0005ZM16.6875 23.6226C16.8838 19.754 20.0827 16.6772 24 16.6772L24.377 16.687C28.2454 16.8833 31.3221 20.0823 31.3223 23.9995L31.3125 24.3765C31.1228 28.1203 28.1207 31.122 24.377 31.312L24 31.3218C19.9562 31.3218 16.6777 28.0434 16.6777 23.9995L16.6875 23.6226ZM17.1777 23.9995C17.1777 27.7672 20.2323 30.8218 24 30.8218C27.7676 30.8217 30.8223 27.7671 30.8223 23.9995C30.8221 20.232 27.7675 17.1774 24 17.1772C20.2324 17.1772 17.1779 20.2319 17.1777 23.9995Z" fill="url(#paint1_linear_405_3861)"/>
<circle cx="24.0001" cy="23.9999" r="6.10169" transform="rotate(-90 24.0001 23.9999)" fill="#0F0F0F"/>
<defs>
<linearGradient id="paint0_linear_405_3861" x1="24" y1="1.90735e-06" x2="24" y2="48" gradientUnits="userSpaceOnUse">
<stop stop-color="#4F2701"/>
<stop offset="0.538462" stop-color="#B9691C"/>
<stop offset="1" stop-color="#4F2701"/>
</linearGradient>
<linearGradient id="paint1_linear_405_3861" x1="45.9672" y1="24.8131" x2="-0.405892" y2="24.8131" gradientUnits="userSpaceOnUse">
<stop stop-color="#3D2003"/>
<stop offset="0.246184" stop-color="#050505"/>
<stop offset="0.503577" stop-color="#FF8E20"/>
<stop offset="0.750536" stop-color="#763C04"/>
<stop offset="1" stop-color="#3D2003"/>
</linearGradient>
</defs>
</svg>
