<svg width="48" height="48" viewBox="0 0 48 48" fill="none" xmlns="http://www.w3.org/2000/svg">
<ellipse cx="24" cy="24" rx="24" ry="24" transform="rotate(-180 24 24)" fill="url(#paint0_linear_405_3681)"/>
<path d="M23.4004 47.1782C10.8717 46.8605 0.812505 36.6048 0.812506 23.9995L0.820318 23.4009C1.13799 10.8723 11.3939 0.813146 23.999 0.812987L24.5977 0.820799C36.9275 1.13323 46.8651 11.0711 47.1777 23.4009L47.1856 23.9995C47.1856 36.805 36.8045 47.186 23.999 47.186L23.4004 47.1782ZM23.999 46.686C36.5284 46.686 46.6856 36.5289 46.6856 23.9995C46.6854 11.4703 36.5283 1.31299 23.999 1.31299C11.4699 1.31315 1.31267 11.4704 1.31251 23.9995C1.3125 36.5288 11.4698 46.6859 23.999 46.686ZM23.999 45.9663C11.8676 45.9663 2.03238 36.1319 2.03223 24.0005L2.04004 23.4331C2.34084 11.5637 12.0571 2.03369 23.999 2.03369L24.5654 2.0415C36.4351 2.34208 45.9649 12.0584 45.9648 24.0005C45.9647 36.1318 36.1303 45.9662 23.999 45.9663ZM23.999 45.4663C35.8542 45.4662 45.4647 35.8557 45.4648 24.0005C45.4649 12.1452 35.8543 2.53384 23.999 2.53369C12.1436 2.53369 2.53223 12.1451 2.53223 24.0005C2.53238 35.8558 12.1437 45.4663 23.999 45.4663ZM23.4648 44.7397C12.2549 44.4557 3.25515 35.2788 3.25489 24.0005L3.26172 23.4653C3.54575 12.2554 12.7216 3.25555 24 3.25537L24.5361 3.26221C35.5681 3.54189 44.4597 12.4333 44.7393 23.4653L44.7461 24.0005C44.7458 35.4578 35.4574 44.7466 24 44.7466L23.4648 44.7397ZM24 44.2466C35.1813 44.2466 44.2458 35.1817 44.2461 24.0005C44.2459 12.8192 35.1813 3.75537 24 3.75537C12.8188 3.75555 3.75507 12.8193 3.75489 24.0005C3.75515 35.1816 12.8189 44.2464 24 44.2466ZM24 43.5259C13.2166 43.5259 4.4749 34.7838 4.47462 24.0005C4.47462 13.2169 13.2164 4.4751 24 4.4751C34.7836 4.47511 43.5254 13.2169 43.5254 24.0005C43.5251 34.7838 34.7834 43.5259 24 43.5259ZM24 43.0259C34.5073 43.0259 43.0251 34.5077 43.0254 24.0005C43.0254 13.493 34.5074 4.97511 24 4.9751C13.4926 4.9751 4.97462 13.493 4.97462 24.0005C4.9749 34.5077 13.4927 43.0259 24 43.0259ZM24 42.3052C13.8906 42.3052 5.69462 34.1099 5.69434 24.0005L5.7002 23.5278C5.95069 13.6365 14.0483 5.69482 24 5.69482L24.4717 5.70068C34.3631 5.95108 42.3047 14.0487 42.3047 24.0005C42.3044 34.1097 34.1093 42.305 24 42.3052ZM24 41.8052C33.8331 41.805 41.8044 33.8336 41.8047 24.0005C41.8047 14.1671 33.8333 6.19504 24 6.19482C14.1665 6.19482 6.19434 14.167 6.19434 24.0005C6.19462 33.8337 14.1667 41.8052 24 41.8052ZM23.5586 41.0796C14.3268 40.8459 6.91433 33.2886 6.91407 24.0005L6.91993 23.5601C7.15365 14.3281 14.7108 6.91564 23.999 6.91553L24.4404 6.92139C33.5257 7.15169 40.8481 14.4747 41.0781 23.5601L41.084 24.0005C41.0837 33.4359 33.4345 41.0854 23.999 41.0854L23.5586 41.0796ZM23.999 40.5854C33.1584 40.5854 40.5837 33.1598 40.584 24.0005C40.5839 14.8411 33.1585 7.41553 23.999 7.41553C14.8397 7.41564 7.41419 14.8412 7.41407 24.0005C7.41433 33.1597 14.8398 40.5853 23.999 40.5854ZM24.001 39.8647C15.2395 39.8647 8.13707 32.7619 8.13672 24.0005C8.13673 15.2388 15.2393 8.13623 24.001 8.13623C32.7626 8.13631 39.8652 15.2389 39.8652 24.0005C39.8649 32.7618 32.7624 39.8647 24.001 39.8647ZM24.001 39.3647C32.4862 39.3647 39.3649 32.4857 39.3652 24.0005C39.3652 15.515 32.4864 8.63631 24.001 8.63623C15.5155 8.63623 8.63673 15.515 8.63672 24.0005C8.63707 32.4857 15.5157 39.3647 24.001 39.3647ZM23.6221 38.6392C15.7093 38.4385 9.35645 31.9607 9.35645 23.9995L9.36133 23.6216C9.56203 15.7089 16.039 9.3562 24 9.35596L24.3789 9.36084C32.166 9.55837 38.4421 15.8345 38.6397 23.6216L38.6445 23.9995C38.6445 32.0872 32.0877 38.644 24 38.644L23.6221 38.6392ZM24 38.144C31.8116 38.144 38.1445 31.8111 38.1445 23.9995C38.1443 16.1882 31.8114 9.85596 24 9.85596C16.1888 9.85621 9.8567 16.1883 9.85645 23.9995C9.85645 31.8109 16.1887 38.1438 24 38.144ZM23.6514 37.4204C16.3981 37.2365 10.5745 31.298 10.5742 24.0005L10.5791 23.6538C10.763 16.4004 16.7003 10.5767 23.9981 10.5767L24.3447 10.5815C31.483 10.7625 37.237 16.5155 37.418 23.6538L37.4219 24.0005C37.4216 31.414 31.4116 37.4243 23.9981 37.4243L23.6514 37.4204ZM23.9981 36.9243C31.1355 36.9243 36.9216 31.1378 36.9219 24.0005C36.9218 16.863 31.1356 11.0767 23.9981 11.0767C16.8606 11.0767 11.0743 16.863 11.0742 24.0005C11.0745 31.1378 16.8607 36.9243 23.9981 36.9243ZM24 36.2036C17.2605 36.2036 11.7963 30.7399 11.7959 24.0005L11.8008 23.6851C11.968 17.091 17.3656 11.7964 24 11.7964L24.3145 11.8013C30.9087 11.9682 36.2031 17.366 36.2031 24.0005C36.2027 30.7398 30.7394 36.2035 24 36.2036ZM24 35.7036C30.4632 35.7035 35.7027 30.4637 35.7031 24.0005C35.7031 17.537 30.4635 12.2965 24 12.2964C17.5364 12.2964 12.2959 17.5369 12.2959 24.0005C12.2963 30.4637 17.5367 35.7036 24 35.7036ZM23.4346 34.9683C17.6313 34.6743 13.0166 29.8758 13.0166 23.9995L13.0303 23.4351C13.3242 17.6319 18.1228 13.0173 23.999 13.0171L24.5645 13.0308C30.1806 13.3154 34.6833 17.8189 34.9678 23.4351L34.9824 23.9995C34.9824 30.0653 30.0648 34.9829 23.999 34.9829L23.4346 34.9683ZM23.999 34.4829C29.7887 34.4829 34.4824 29.7891 34.4824 23.9995C34.4822 18.21 29.7885 13.5171 23.999 13.5171C18.2097 13.5173 13.5168 18.2102 13.5166 23.9995C13.5166 29.789 18.2096 34.4827 23.999 34.4829ZM23.999 33.7632C18.6074 33.7632 14.2365 29.3921 14.2363 24.0005C14.2363 18.6087 18.6072 14.2378 23.999 14.2378C29.3908 14.2378 33.7617 18.6087 33.7617 24.0005C33.7615 29.3921 29.3907 33.7632 23.999 33.7632ZM23.999 33.2632C29.1145 33.2632 33.2615 29.116 33.2617 24.0005C33.2617 18.8848 29.1147 14.7378 23.999 14.7378C18.8834 14.7378 14.7363 18.8848 14.7363 24.0005C14.7365 29.116 18.8835 33.2632 23.999 33.2632ZM23.999 32.5425C19.2815 32.5425 15.4565 28.7179 15.4561 24.0005L15.4678 23.5601C15.6968 19.0467 19.4288 15.4575 23.999 15.4575L24.4385 15.4692C28.9519 15.6982 32.541 19.4302 32.541 24.0005C32.5406 28.7178 28.7164 32.5423 23.999 32.5425ZM23.999 32.0425C28.4402 32.0423 32.0406 28.4416 32.041 24.0005C32.041 19.5589 28.4405 15.9577 23.999 15.9575C19.5574 15.9575 15.9561 19.5588 15.9561 24.0005C15.9565 28.4418 19.5576 32.0425 23.999 32.0425ZM23.6231 31.312C19.7545 31.1157 16.6777 27.9168 16.6777 23.9995L16.6875 23.6226C16.8838 19.7541 20.0828 16.6774 24 16.6772L24.377 16.687C28.1208 16.8767 31.1225 19.8788 31.3125 23.6226L31.3223 23.9995C31.3223 28.0434 28.0439 31.3218 24 31.3218L23.6231 31.312ZM24 30.8218C27.7677 30.8218 30.8223 27.7672 30.8223 23.9995C30.8221 20.2319 27.7676 17.1772 24 17.1772C20.2325 17.1774 17.1779 20.232 17.1777 23.9995C17.1777 27.7671 20.2324 30.8216 24 30.8218Z" fill="url(#paint1_linear_405_3681)"/>
<ellipse cx="23.9999" cy="24.0004" rx="6.10169" ry="6.1017" transform="rotate(-180 23.9999 24.0004)" fill="#0F0F0F"/>
<defs>
<linearGradient id="paint0_linear_405_3681" x1="24" y1="-1.90735e-06" x2="24" y2="48" gradientUnits="userSpaceOnUse">
<stop stop-color="#191919"/>
<stop offset="0.485577" stop-color="#D01C22"/>
<stop offset="1" stop-color="#191919"/>
</linearGradient>
<linearGradient id="paint1_linear_405_3681" x1="8.13457" y1="24.4063" x2="52.8805" y2="24.4063" gradientUnits="userSpaceOnUse">
<stop stop-color="#561A1C"/>
<stop offset="0.246184" stop-color="#3F0D0F"/>
<stop offset="0.503577" stop-color="#270506"/>
<stop offset="0.750536" stop-color="#3F0D0F"/>
<stop offset="1" stop-color="#561A1C"/>
</linearGradient>
</defs>
</svg>
