<svg width="32" height="32" viewBox="0 0 32 32" fill="none" xmlns="http://www.w3.org/2000/svg">
<g opacity="0.3">
<path d="M2.38585 10.6664H1.33398V5.33302L2.48737 5.33301C3.44802 5.33293 4.34191 5.33285 5.10181 5.4037C5.94338 5.48217 6.80882 5.65974 7.6723 6.12186C8.53578 6.58398 9.16359 7.20557 9.6957 7.86227C10.1762 8.45524 10.6719 9.19904 11.2047 9.9984L11.5528 10.5205L7.11518 13.4789L6.82345 13.0413C6.21512 12.1288 5.85694 11.5963 5.55191 11.2199C5.28805 10.8942 5.18169 10.8379 5.15736 10.825L5.15573 10.8241L5.1541 10.8232C5.12988 10.8101 5.02399 10.7529 4.60667 10.714C4.12425 10.669 3.48253 10.6664 2.38585 10.6664Z" fill="#C1C1BE"/>
<path d="M19.5528 18.5205L20.7403 20.3017C21.0611 20.783 21.1015 20.8352 21.1291 20.8675C21.3461 21.1206 21.6499 21.2832 21.9808 21.3233C22.023 21.3284 22.0889 21.333 22.6673 21.333V26.6664L22.569 26.6664C22.1566 26.6667 21.744 26.667 21.3385 26.6178C19.6841 26.4171 18.1648 25.604 17.0801 24.3388C16.8142 24.0287 16.5857 23.6853 16.3572 23.342L15.1152 21.4789L19.5528 18.5205Z" fill="#C1C1BE"/>
<path d="M15.9735 16.3833C16.5213 13.0968 19.3733 10.6663 22.6673 10.6663V5.33301C16.7284 5.33301 11.6829 9.68571 10.7127 15.5065C10.1545 18.8558 7.24798 21.333 3.8903 21.333H1.33398V26.6663H3.8903C9.89286 26.6663 14.9929 22.2669 15.9735 16.3833Z" fill="#C1C1BE"/>
</g>
<path d="M23.4891 1.43454C23.9873 1.22817 24.5608 1.34224 24.9422 1.72357L28.4412 5.22258C28.8411 5.62232 29.2297 6.0108 29.5071 6.37436C29.8198 6.78422 30.1137 7.31483 30.1137 7.99971C30.1137 8.6846 29.8198 9.21521 29.5071 9.62507C29.2297 9.98863 28.8411 10.3771 28.4412 10.7769L24.9422 14.2759C24.5608 14.6572 23.9873 14.7713 23.4891 14.5649C22.9909 14.3585 22.666 13.8723 22.666 13.333V2.66638C22.666 2.1271 22.9909 1.64092 23.4891 1.43454Z" fill="#C1C1BE"/>
<path d="M23.4891 17.4345C23.9873 17.2282 24.5608 17.3422 24.9422 17.7236L28.4412 21.2226C28.8411 21.6223 29.2297 22.0108 29.5071 22.3744C29.8198 22.7842 30.1137 23.3148 30.1137 23.9997C30.1137 24.6846 29.8198 25.2152 29.5071 25.6251C29.2297 25.9886 28.8411 26.3771 28.4412 26.7769L24.9422 30.2759C24.5608 30.6572 23.9873 30.7713 23.4891 30.5649C22.9909 30.3585 22.666 29.8723 22.666 29.333V18.6664C22.666 18.1271 22.9909 17.6409 23.4891 17.4345Z" fill="#C1C1BE"/>
</svg>
