<svg width="24" height="24" viewBox="0 0 24 24" fill="none" xmlns="http://www.w3.org/2000/svg">
<path d="M23 17.9583C22.9083 18.4167 22.6333 18.7833 22.175 18.9667C21.5333 19.2417 20.8917 19.5167 20.25 19.7C20.1583 20.525 19.6083 21.075 18.875 21.075C18.7833 21.075 18.7833 21.075 18.6917 21.075C18.5083 21.075 18.325 21.1667 18.1417 21.1667C17.1333 21.1667 16.125 21.4417 15.3 21.9917C14.2917 22.6333 13.1917 23 12.0917 23C11.5417 23 10.9 22.9083 10.2583 22.725C9.525 22.5417 8.88333 22.0833 8.33333 21.8083C7.6 21.35 6.86667 21.1667 5.95 21.1667C5.675 21.1667 5.49167 21.1667 5.30833 21.1667H5.125C4.39167 21.075 3.93333 20.8 3.75 19.7917C3.65833 19.7917 3.65833 19.7917 3.56667 19.7C3.475 19.7 3.29167 19.6083 3.2 19.6083L2.83333 19.3333C2.46667 19.2417 2.1 19.0583 1.825 18.875C1.09167 18.6 1 18.05 1 17.775C1 17.5 1.09167 17.0417 1.73333 16.675C2.83333 16.0333 3.65833 15.4833 4.3 14.75C4.85 14.1083 5.21667 13.4667 5.4 12.825C5.125 12.6417 4.94167 12.4583 4.66667 12.3667C4.39167 12.1833 4.20833 12.0917 4.025 11.9083C3.84167 11.725 3.56667 11.5417 3.38333 11.2667C2.925 10.8083 2.83333 10.075 3.10833 9.525C3.38333 8.88333 4.025 8.51667 4.66667 8.60833C5.03333 8.7 5.4 8.79167 5.675 8.88333C5.675 8.05833 5.675 7.23333 5.675 6.40833C5.85833 4.3 7.05 2.65 8.975 1.73333C10.2583 1.09167 10.8083 1 12 1C14.0167 1 15.575 1.73333 16.8583 3.01667C17.6833 3.93333 18.1417 4.94167 18.325 6.225C18.4167 7.05 18.4167 7.875 18.4167 8.79167C18.5083 8.79167 18.5083 8.79167 18.6 8.7C18.9667 8.60833 19.2417 8.51667 19.6083 8.51667C20.25 8.51667 20.8917 8.88333 21.075 9.525C21.35 10.1667 21.1667 10.9 20.6167 11.2667C20.25 11.5417 19.975 11.8167 19.6083 12L19.3333 12.275C19.2417 12.3667 19.15 12.4583 18.9667 12.55C18.875 12.6417 18.7833 12.6417 18.6917 12.7333L18.6 12.825V12.9167C18.9667 14.0167 19.6083 14.9333 20.6167 15.6667C20.8917 15.9417 21.2583 16.125 21.625 16.3083C21.8083 16.4 22.0833 16.5833 22.2667 16.675C23 17.1333 23 17.5917 23 17.9583Z" fill="#C1C1BE"/>
</svg>
