<svg width="24" height="24" viewBox="0 0 24 24" fill="none" xmlns="http://www.w3.org/2000/svg">
<path fill-rule="evenodd" clip-rule="evenodd" d="M11 6C11 5.44772 11.4477 5 12 5C13.8339 5 15.3354 5.46105 16.4654 6.41717C17.3898 7.19935 17.9853 8.24511 18.3388 9.44444H18.6667C19.7226 9.44444 20.7904 9.92056 21.5874 10.6579C22.3954 11.4054 23 12.492 23 13.7778C23 16.2043 20.8518 18.1111 18.6667 18.1111H12C11.4477 18.1111 11 17.6634 11 17.1111V6ZM8.66667 6.11111C9.21895 6.11111 9.66667 6.55883 9.66667 7.11111V17.1111C9.66667 17.6634 9.21895 18.1111 8.66667 18.1111C8.11438 18.1111 7.66667 17.6634 7.66667 17.1111V7.11111C7.66667 6.55883 8.11438 6.11111 8.66667 6.11111ZM5.33333 8.33333C5.88562 8.33333 6.33333 8.78105 6.33333 9.33333V17.1111C6.33333 17.6634 5.88562 18.1111 5.33333 18.1111C4.78105 18.1111 4.33333 17.6634 4.33333 17.1111V9.33333C4.33333 8.78105 4.78105 8.33333 5.33333 8.33333ZM2 12.7778C2.55228 12.7778 3 13.2255 3 13.7778V16C3 16.5523 2.55228 17 2 17C1.44772 17 1 16.5523 1 16V13.7778C1 13.2255 1.44772 12.7778 2 12.7778Z" fill="#C1C1BE"/>
</svg>
