<svg width="240" height="207" viewBox="0 0 240 207" fill="none" xmlns="http://www.w3.org/2000/svg">
<path d="M191.67 72.3989L199.092 70.9436L208.423 92.83L208.994 92.718L203.66 70.0481L211.653 68.4808L220.609 114.157L213.186 115.612L203.856 93.7255L203.285 93.8375L208.619 116.507L200.626 118.075L191.67 72.3989Z" fill="#121212"/>
<path d="M170.445 98.4977C167.367 82.7967 170.474 75.9622 177.896 74.5069C185.318 73.0516 190.776 78.2069 193.854 93.908L194.526 97.3336C197.604 113.035 194.498 119.869 187.075 121.325C179.653 122.78 174.196 117.624 171.117 101.923L170.445 98.4977ZM182.821 111.724C183.191 113.608 184.306 114.456 185.676 114.188C187.046 113.919 187.758 112.712 187.389 110.828L182.094 83.8223C181.724 81.9382 180.609 81.0896 179.239 81.3582C177.869 81.6269 177.157 82.8337 177.526 84.7178L182.821 111.724Z" fill="#121212"/>
<path d="M155.789 79.4341L164.353 77.7549L173.309 123.431L164.745 125.11L155.789 79.4341Z" fill="#121212"/>
<path d="M134.191 83.6689L154.175 79.7508L155.63 87.1731L149.92 88.2926L157.421 126.546L148.857 128.225L141.356 89.9718L135.647 91.0913L134.191 83.6689Z" fill="#121212"/>
<path d="M111.447 88.1284L120.011 86.4492L127.165 122.933C127.534 124.817 128.364 125.721 129.734 125.453C131.104 125.184 131.531 124.033 131.161 122.149L124.008 85.6656L132.572 83.9864L139.289 118.243C140.744 125.666 137.643 131.017 131.077 132.304C124.512 133.592 119.619 129.808 118.164 122.385L111.447 88.1284Z" fill="#121212"/>
<path d="M94.9492 91.3633L103.513 89.6841L111.014 127.938L118.151 126.538L119.606 133.961L103.905 137.039L94.9492 91.3633Z" fill="#121212"/>
<path d="M73.7247 117.462C70.6461 101.761 73.7528 94.9265 81.1751 93.4712C88.5974 92.0159 94.055 97.1713 97.1335 112.872L97.8052 116.298C100.884 131.999 97.777 138.834 90.3547 140.289C82.9324 141.744 77.4748 136.589 74.3963 120.888L73.7247 117.462ZM86.1007 130.688C86.4701 132.572 87.5851 133.421 88.9554 133.152C90.3256 132.883 91.0377 131.677 90.6682 129.792L85.3732 102.787C85.0038 100.903 83.8887 100.054 82.5185 100.323C81.1482 100.591 80.4362 101.798 80.8056 103.682L86.1007 130.688Z" fill="#121212"/>
<path d="M62.0447 145.247L48.6334 101.037L48.5215 100.466L57.0857 98.7871L63.5562 122.717L64.1272 122.605L61.0823 98.0035L69.6465 96.3243L69.7585 96.8953L74.0346 142.896L62.0447 145.247Z" fill="#121212"/>
<path d="M32.1445 103.677L47.5601 100.655L49.0154 108.077L42.164 109.42L44.403 120.839L50.3979 119.664L51.8532 127.086L45.8583 128.262L48.2091 140.252L55.0605 138.908L56.5158 146.33L41.1002 149.353L32.1445 103.677Z" fill="#121212"/>
<path d="M17.8406 106.482C25.0346 105.071 31.5008 109.021 33.236 117.871C34.3554 123.58 33.2695 127.113 30.7338 130.812L38.7885 149.213L38.9004 149.784L30.6217 151.408L23.9641 134.689L23.1077 134.857L26.9105 152.135L18.3463 153.814L9.39062 108.139L17.8406 106.482ZM22.3207 128.726L22.6062 128.67C24.6045 128.279 26.0151 126.401 25.4218 123.375L24.1904 117.095C23.5971 114.069 21.582 112.863 19.5837 113.255L19.2982 113.311L22.3207 128.726Z" fill="#121212"/>
<path d="M164.697 12.4692L173.261 10.79L180.762 49.0435L187.899 47.6442L189.354 55.0665L173.653 58.145L164.697 12.4692Z" fill="#121212"/>
<path d="M146.411 16.0544L158.972 13.5916L172.098 57.8569L172.21 58.4278L164.216 59.995L161.119 49.3374L157.921 49.9643L159.078 61.0026L151.085 62.5698L150.973 61.9989L146.411 16.0544ZM156.523 42.5308L159.606 41.9262L155.272 26.4715L154.701 26.5834L156.523 42.5308Z" fill="#121212"/>
<path d="M129.233 19.4223C136.427 18.0118 142.893 21.9614 144.629 30.8111C145.748 36.5206 144.662 40.0537 142.126 43.7525L150.181 62.1539L150.293 62.7248L142.014 64.348L135.357 47.6293L134.5 47.7972L138.303 65.0757L129.739 66.7549L120.783 21.0791L129.233 19.4223ZM133.713 41.6668L133.999 41.6109C135.997 41.2191 137.408 39.3417 136.814 36.3156L135.583 30.0352C134.99 27.0092 132.975 25.8035 130.976 26.1953L130.691 26.2513L133.713 41.6668Z" fill="#121212"/>
<path d="M97.3535 25.6729L105.918 23.9937L113.071 60.4772C113.44 62.3613 114.27 63.2659 115.64 62.9972C117.011 62.7285 117.437 61.5777 117.068 59.6936L109.914 23.21L118.479 21.5308L125.195 55.7877C126.651 63.21 123.55 68.5612 116.984 69.8486C110.418 71.1359 105.526 67.352 104.07 59.9297L97.3535 25.6729Z" fill="#121212"/>
<path d="M75.7539 29.9082L95.7371 25.9901L97.1924 33.4124L91.4829 34.5319L98.9833 72.7853L90.4191 74.4645L82.9187 36.2111L77.2092 37.3305L75.7539 29.9082Z" fill="#121212"/>
<path d="M63.9277 32.2271L72.4919 30.5479L79.9923 68.8013L87.1292 67.402L88.5845 74.8243L72.8834 77.9028L63.9277 32.2271Z" fill="#121212"/>
<path d="M40.5 36.8208L49.0642 35.1416L56.2176 71.6251C56.587 73.5092 57.4165 74.4138 58.7868 74.1451C60.1571 73.8765 60.5836 72.7256 60.2142 70.8415L53.0608 34.358L61.625 32.6788L68.3418 66.9356C69.7971 74.3579 66.696 79.7091 60.1302 80.9965C53.5643 82.2839 48.6721 78.4999 47.2168 71.0776L40.5 36.8208Z" fill="#121212"/>
<path d="M20.502 62.6789C17.4235 46.9779 20.5872 40.1321 28.0096 38.6768C34.8609 37.3335 39.5785 42.041 41.2577 50.6052C41.4592 51.6329 41.7513 52.8207 42.1588 53.6895L42.2708 54.2604L33.7066 55.9396C33.4233 55.4022 33.1412 54.5682 32.9173 53.4263L31.8091 47.7739C31.4956 46.1753 30.609 45.2819 29.2387 45.5506C27.8684 45.8192 27.2135 47.0149 27.5829 48.899L32.878 75.9048C33.2474 77.7889 34.3053 78.6487 35.6756 78.38C37.0459 78.1114 37.5295 76.9493 37.2161 75.3507L36.1078 69.6983C35.8839 68.5564 35.8302 67.6776 35.8895 67.0731L44.4537 65.3939L44.5657 65.9648C44.4817 67.0485 44.6944 68.1333 44.9519 69.4465C46.6311 78.0107 44.0405 84.1511 37.1891 85.4945C29.7668 86.9498 24.2522 81.8056 21.1737 66.1046L20.502 62.6789Z" fill="#121212"/>
<path d="M211.652 68.4806L203.659 70.0479L208.993 92.7185L208.422 92.8305L199.091 70.9434L191.669 72.3987L200.625 118.075L208.618 116.508L203.284 93.838L203.855 93.726L213.185 115.612L220.608 114.157L211.652 68.4806ZM229.997 120.468L194.314 127.465L192.547 118.456C195.805 114.956 196.678 108.314 194.525 97.3336L193.853 93.9076C191.7 82.9273 188.384 77.1055 184.045 75.0946L182.279 66.0874L217.963 59.0908L229.997 120.468Z" fill="#E0E0E0"/>
<path d="M193.854 93.9075C190.775 78.2068 185.318 73.0518 177.896 74.507C170.474 75.9622 167.367 82.7965 170.445 98.4972L171.117 101.923C174.195 117.624 179.653 122.78 187.076 121.325C194.498 119.869 197.604 113.034 194.526 97.3334L193.854 93.9075ZM187.389 110.828L187.446 111.173C187.667 112.859 186.961 113.936 185.676 114.188C184.392 114.44 183.331 113.709 182.9 112.064L182.822 111.723L177.527 84.718C177.157 82.8339 177.869 81.6266 179.239 81.358C180.61 81.0894 181.725 81.9385 182.094 83.8225L187.389 110.828ZM200.625 118.075L202.12 117.782C201.049 120.665 199.37 123.243 196.976 125.273C194.457 127.408 191.542 128.601 188.615 129.175C185.688 129.749 182.538 129.745 179.399 128.719C176.416 127.744 173.888 125.991 171.806 123.725L173.31 123.431L164.354 77.7543L162.85 78.0491C163.922 75.1652 165.601 72.587 167.995 70.5579C170.515 68.4227 173.43 67.2304 176.357 66.6564C179.284 66.0825 182.433 66.0857 185.573 67.1115C188.556 68.0863 191.083 69.8399 193.165 72.1054L191.67 72.3985L200.625 118.075Z" fill="#E0E0E0"/>
<path d="M164.354 77.7543L155.79 79.4333L164.746 125.11L173.309 123.43L164.354 77.7543ZM172.43 77.365C169.166 80.8632 168.29 87.5087 170.445 98.4972L171.117 101.923C173.271 112.911 176.592 118.733 180.934 120.74L182.699 129.742L158.435 134.499L156.895 126.649L157.42 126.546L149.919 88.2929L155.629 87.1734L154.173 79.7503L147.94 80.9726L146.4 73.1221L170.665 68.3645L172.43 77.365Z" fill="#E0E0E0"/>
<path d="M160.485 70.3609L162.024 78.2114L155.79 79.4337L164.746 125.11L165.27 125.007L166.809 132.858L142.545 137.615L139.609 122.644C139.698 121.282 139.596 119.808 139.289 118.243L132.572 83.986L126.34 85.2079L124.801 77.3574L160.485 70.3609ZM157.419 126.546L149.919 88.2932L155.629 87.1738L154.173 79.7506L134.191 83.6687L135.646 91.0918L141.356 89.9723L148.856 128.225L157.419 126.546Z" fill="#E0E0E0"/>
<path d="M131.22 122.494C131.473 124.173 131.018 125.2 129.733 125.452C128.449 125.704 127.639 124.925 127.238 123.274L127.163 122.933L120.01 86.4486L111.446 88.1277L118.163 122.385L118.31 123.07C119.926 130.039 124.716 133.551 131.077 132.304C137.437 131.057 140.547 125.996 139.412 118.933L139.288 118.243L132.572 83.9857L124.007 85.6649L131.161 122.149L131.22 122.494ZM135.646 91.0914L141.355 89.9719L147.637 122.011C147.593 125.346 146.831 128.635 145.102 131.602C142.371 136.288 137.827 139.133 132.616 140.155C127.405 141.176 122.122 140.258 117.824 136.951C116.962 136.287 116.179 135.556 115.469 134.771L119.605 133.96L118.15 126.538L111.398 127.862C110.935 126.586 110.576 125.265 110.313 123.924L102.057 81.8164L138.883 74.5959L140.422 82.4464L134.19 83.6683L135.646 91.0914Z" fill="#E0E0E0"/>
<path d="M103.512 89.6835L94.9484 91.3625L103.904 137.039L119.605 133.96L118.15 126.538L111.012 127.938L103.512 89.6835ZM117.324 118.548L117.408 118.531L118.164 122.385C119.337 128.372 122.748 131.99 127.469 132.49L128.995 140.271L97.5929 146.429L95.8266 137.42C99.084 133.92 99.9571 127.277 97.8043 116.297L97.1326 112.872C94.9796 101.891 91.663 96.0693 87.3246 94.0585L85.5586 85.0513L109.823 80.2937L117.324 118.548Z" fill="#E0E0E0"/>
<path d="M97.1319 112.872C94.0534 97.171 88.5963 92.016 81.1742 93.4712C73.7519 94.9264 70.6447 101.761 73.7231 117.461L74.3949 120.887C77.4734 136.588 82.9314 141.744 90.3537 140.289C97.7759 138.833 100.882 131.999 97.8036 116.298L97.1319 112.872ZM90.6671 129.792L90.7238 130.137C90.945 131.823 90.239 132.9 88.9545 133.152C87.6698 133.404 86.6095 132.673 86.1776 131.029L86.0998 130.688L80.8048 103.682C80.4354 101.798 81.1472 100.591 82.5175 100.322C83.8877 100.054 85.0027 100.903 85.3721 102.787L90.6671 129.792ZM103.903 137.039L105.398 136.746C104.327 139.63 102.649 142.208 100.254 144.237C97.735 146.372 94.8204 147.565 91.893 148.139C88.9656 148.713 85.8163 148.709 82.677 147.683C79.5161 146.65 76.8655 144.744 74.7162 142.28C74.4303 141.952 74.1532 141.613 73.8829 141.263L69.7583 96.8947L69.6463 96.3236L66.1283 97.0133C67.2002 94.1294 68.8792 91.5512 71.2733 89.5221C73.7927 87.3869 76.7076 86.1946 79.6349 85.6206C82.5623 85.0467 85.7115 85.0499 88.8507 86.0757C91.8337 87.0504 94.3611 88.8041 96.4427 91.0696L94.9477 91.3627L103.903 137.039Z" fill="#E0E0E0"/>
<path d="M48.5226 100.466L48.6346 101.037L62.0457 145.246L74.0361 142.895L69.7597 96.8947L69.6477 96.3235L61.0832 98.0028L64.1285 122.604L63.5573 122.716L57.0871 98.7863L48.5226 100.466ZM77.5117 94.8533C72.8158 97.7585 71.2156 104.665 73.7246 117.461L74.3963 120.887C76.0969 129.561 78.5245 135.015 81.6072 137.916L82.6708 149.355L56.4896 154.488L54.1549 146.793L56.5162 146.33L55.0609 138.908L51.9483 139.519L48.3832 127.766L51.8532 127.086L50.398 119.664L46.1766 120.491L42.7811 109.3L49.0159 108.077L47.5604 100.654L40.6721 102.005L39.1328 94.1543L75.959 86.9338L77.5117 94.8533Z" fill="#E0E0E0"/>
<path d="M53.8704 91.2647L55.4097 99.1152L48.5213 100.466L48.6333 101.037L62.0444 145.246L64.3654 144.791L65.9047 152.642L34.7882 158.743L33.2489 150.892L38.8992 149.785L38.7872 149.213L30.7328 130.812C33.2683 127.113 34.3543 123.58 33.2349 117.871C32.0752 111.956 28.8013 108.231 24.6098 106.831L22.7539 97.3657L53.8704 91.2647ZM41.0995 149.353L56.5149 146.331L55.0597 138.909L48.2077 140.252L45.8567 128.262L51.8519 127.086L50.3967 119.664L44.4015 120.839L42.1626 109.421L49.0146 108.078L47.5591 100.654L32.1437 103.677L41.0995 149.353Z" fill="#E0E0E0"/>
<path d="M19.5823 113.255C21.5806 112.864 23.5961 114.069 24.1894 117.095L25.4209 123.376C26.0141 126.402 24.6031 128.279 22.6049 128.671L22.3193 128.727L19.2968 113.311L19.5823 113.255ZM41.0998 149.353L46.75 148.245L48.2893 156.096L12.0343 163.204L0 101.827L16.3 98.6312C21.7683 97.559 27.4543 98.4652 32.1792 101.78C32.8474 102.249 33.4799 102.757 34.0789 103.298L32.144 103.677L41.0998 149.353ZM18.3455 153.815L26.9091 152.136L23.1062 134.857L23.963 134.689L30.6206 151.408L38.8995 149.785L38.7875 149.213L30.7332 130.812C33.1894 127.229 34.2846 123.801 33.3331 118.4L33.2353 117.871C31.5001 109.021 25.0332 105.071 17.8392 106.482L9.38978 108.138L18.3455 153.815Z" fill="#E0E0E0"/>
<path d="M173.26 10.7894L164.696 12.4685L173.652 58.1447L189.353 55.0662L187.898 47.644L180.76 49.0435L173.26 10.7894ZM187.072 39.6537L194.209 38.2542L198.743 61.3774L167.341 67.5345L165.802 59.6839L172.209 58.4277L172.097 57.8565L158.971 13.591L156.846 14.0077L155.307 6.15723L179.571 1.39966L187.072 39.6537Z" fill="#E0E0E0"/>
<path d="M155.271 26.4712L159.606 41.9259L156.522 42.5305L154.7 26.5831L155.271 26.4712ZM159.077 61.0022L157.921 49.9638L161.118 49.3369L164.216 59.9947L172.209 58.4275L172.097 57.8563L158.971 13.5908L146.41 16.0538L150.972 61.9983L151.084 62.5695L159.077 61.0022ZM173.652 58.1445L180.059 56.8882L181.599 64.7387L144.773 71.9593L143.233 64.1087L150.292 62.7247L150.18 62.1535L142.126 43.752C144.661 40.0534 145.747 36.5202 144.628 30.811C143.75 26.3352 141.662 23.1133 138.882 21.2038L137.73 9.60327L164.573 4.34026L166.856 12.0448L164.696 12.4683L173.652 58.1445Z" fill="#E0E0E0"/>
<path d="M130.975 26.1957C132.973 25.8039 134.989 27.0094 135.582 30.0354L136.813 36.3162C137.407 39.342 135.996 41.2194 133.997 41.6112L133.712 41.6672L130.689 26.2517L130.975 26.1957ZM151.084 62.5698L158.143 61.1857L159.682 69.0363L123.427 76.1448L121.782 67.7576C124.96 65.2903 126.23 61.0632 125.195 55.7875L118.479 21.5305L112.932 22.6181L111.393 14.7676L127.693 11.5716C133.161 10.4994 138.847 11.4057 143.572 14.7207C144.648 15.4758 145.634 16.3284 146.53 17.2655L150.972 61.9986L151.084 62.5698ZM129.738 66.755L138.302 65.076L134.499 47.7973L135.356 47.6293L142.013 64.3483L150.292 62.725L150.18 62.1538L142.126 43.7523C144.582 40.1693 145.677 36.7417 144.726 31.3405L144.628 30.8113C142.893 21.9616 136.426 18.0116 129.232 19.4221L120.782 21.0788L129.738 66.755Z" fill="#E0E0E0"/>
<path d="M117.128 60.0384C117.381 61.7182 116.926 62.745 115.641 62.997C114.357 63.2489 113.547 62.47 113.147 60.8191L113.072 60.4776L105.918 23.9935L97.3546 25.6726L104.071 59.9295L104.218 60.6153C105.834 67.5838 110.624 71.0961 116.985 69.8489C123.345 68.6017 126.455 63.5406 125.32 56.4778L125.197 55.7875L118.48 21.5306L109.915 23.2098L117.069 59.6938L117.128 60.0384ZM129.739 66.7551L132.368 66.2397C132.006 67.235 131.558 68.2075 131.01 69.147C128.28 73.833 123.735 76.6777 118.524 77.6995C113.313 78.7212 108.03 77.8034 103.732 74.4955C101.014 72.4041 99.0686 69.6504 97.7682 66.584L91.4838 34.5322L97.1934 33.4127L95.7379 25.9896L89.5041 27.2118L87.9648 19.3613L124.791 12.1408L126.33 19.9913L120.784 21.0789L129.739 66.7551Z" fill="#E0E0E0"/>
<path d="M102.049 16.5996L103.588 24.4502L97.3545 25.6724L104.071 59.9293C104.379 61.4979 104.842 62.9032 105.44 64.1332L108.374 79.0964L84.1092 83.8539L82.5699 76.0034L88.5853 74.824L87.13 67.4018L81.1146 68.5813L76.6089 45.6009L75.4867 45.8209L72.4919 30.5472L67.9045 31.4467L66.3652 23.5962L102.049 16.5996ZM98.9839 72.7851L91.4836 34.532L97.1933 33.4125L95.7378 25.9894L75.755 29.9075L77.2105 37.3306L82.9201 36.2111L90.4204 74.4642L98.9839 72.7851Z" fill="#E0E0E0"/>
<path d="M72.4923 30.5472L63.9288 32.2263L72.8846 77.9025L88.5857 74.824L87.1304 67.4018L79.9929 68.8013L72.4923 30.5472ZM77.2109 37.3306L81.7983 36.4311L86.3041 59.4115L87.4263 59.1915L90.4208 74.4642L96.4362 73.2847L97.9754 81.1352L66.5733 87.2923L64.9289 78.9051C68.1064 76.4377 69.3762 72.2106 68.3418 66.9349L61.6251 32.678L56.0783 33.7656L54.5391 25.915L78.8036 21.1575L80.3429 29.008L75.7554 29.9075L77.2109 37.3306Z" fill="#E0E0E0"/>
<path d="M60.2729 71.1859C60.5254 72.8657 60.0704 73.8925 58.786 74.1444C57.5014 74.3963 56.6916 73.6175 56.2911 71.9666L56.2161 71.625L49.0627 35.141L40.4992 36.8201L47.2159 71.077L47.3623 71.7628C48.9787 78.7313 53.7689 82.2435 60.1295 80.9964C66.4899 79.7492 69.5993 74.6881 68.4645 67.6253L68.341 66.9349L61.6243 32.678L53.0598 34.3573L60.2133 70.8413L60.2729 71.1859ZM72.8838 77.9025L75.5125 77.3871C75.1509 78.3825 74.7024 79.355 74.1549 80.2944C71.424 84.9805 66.8798 87.8251 61.6687 88.8469C56.4576 89.8687 51.1747 88.9508 46.8765 85.643C45.4633 84.5554 44.2597 83.288 43.246 81.8915C45.4082 79.0098 45.978 74.6809 44.9516 69.446C44.6942 68.1329 44.4815 67.0477 44.5655 65.9641L44.4537 65.3939L38.1901 66.622L36.0071 55.4882L42.2707 54.2601L42.1587 53.689C41.7512 52.8203 41.4589 51.6323 41.2574 50.6046C39.9975 44.1794 37.0271 39.9255 32.7289 38.7685L31.1094 30.5088L67.9355 23.2883L69.4748 31.1388L63.9281 32.2263L72.8838 77.9025Z" fill="#E0E0E0"/>
<path d="M21.1728 66.1044C24.2512 81.8052 29.766 86.9497 37.1882 85.4946C44.0395 84.1513 46.6306 78.0104 44.9514 69.4462C44.694 68.133 44.4813 67.0478 44.5653 65.9642L44.4535 65.394L35.889 67.0732C35.8297 67.6778 35.8833 68.5568 36.1072 69.6985L37.2154 75.3506L37.2652 75.6454C37.4652 77.0911 36.9594 78.1285 35.6749 78.3804C34.3903 78.6322 33.3801 77.8917 32.9545 76.2458L32.8777 75.9046L27.5827 48.8992C27.2133 47.0152 27.8677 45.8192 29.2378 45.5504C30.6081 45.2818 31.495 46.1755 31.8085 47.7741L32.9167 53.4263C33.1406 54.5681 33.4228 55.4022 33.706 55.9395L42.2705 54.2603L42.1585 53.6891C41.751 52.8204 41.4587 51.6324 41.2572 50.6047C39.5779 42.0407 34.8599 37.3337 28.0086 38.6771C20.5866 40.1325 17.4227 46.9779 20.501 62.6784L21.1728 66.1044ZM47.2158 71.0771C48.0498 75.331 50.0141 78.3877 52.7741 79.9816C52.4709 81.2057 52.0583 82.4035 51.5184 83.5606C49.0775 88.7916 44.5035 92.2126 38.7274 93.3451C35.7999 93.9191 32.6522 93.9144 29.5145 92.8945C26.3555 91.8677 23.6989 89.9707 21.5394 87.51C17.437 82.8352 14.947 75.9301 13.3222 67.6437L12.6505 64.2177C11.0258 55.9314 10.7241 48.598 12.7574 42.7203C13.8278 39.626 15.571 36.8657 18.1085 34.7219C20.6288 32.5926 23.5419 31.4006 26.4693 30.8265C32.2454 29.694 37.7725 31.1336 42.0079 35.0555C42.4325 35.4486 42.8349 35.8606 43.2187 36.2869L40.499 36.8202L47.2158 71.0771Z" fill="#E0E0E0"/>
<path fill-rule="evenodd" clip-rule="evenodd" d="M200.717 131.961C199.153 132.164 197.675 132.791 196.442 133.775C195.981 134.076 194.938 135.073 193.384 136.705C193.119 136.601 192.935 136.316 192.826 135.811L192.327 134.621L186.823 135.808L193.731 168.228L200.011 166.874L195.273 144.896C195.233 143.202 195.886 141.723 197.259 140.373C198.531 139.124 200.144 138.33 202.022 138.007L200.718 131.961L200.717 131.961ZM183.604 136.502L177.21 137.881L177.811 140.671C174.082 138.798 170.27 138.241 166.316 139.093C162.325 139.954 159.041 142.04 156.415 145.284C153.867 148.51 152.607 152.067 152.542 156.097C150.853 152.407 148.229 149.645 144.546 147.803C140.884 145.875 137.044 145.364 133.062 146.264C128.292 147.292 124.66 149.82 122.083 153.863C120.198 156.784 119.28 159.862 119.299 163.144L118.141 161.162C114.912 156.91 111.461 154.449 107.819 153.734C107.606 153.496 107.27 153.447 106.852 153.578C104.766 152.932 102.302 152.977 99.5744 153.687C96.8397 154.358 94.7247 155.463 93.2704 156.992L89.5169 160.276L83.9349 134.384L78.1211 135.638L89.9704 190.599L95.7842 189.346L94.9988 185.703L99.476 187.657L103.8 188.146L108.634 187.427C112.655 186.317 115.878 183.959 118.437 180.407C120.076 177.659 120.978 174.504 120.995 171.013L120.945 170.781C122.255 173.663 124.352 176.051 127.273 177.935C131.277 180.519 135.621 181.287 140.391 180.259C144.382 179.399 147.68 177.39 150.254 174.279C152.876 171.199 154.261 167.655 154.304 163.711C156.003 167.279 158.689 169.946 162.23 171.697C165.897 173.463 169.653 173.95 173.644 173.09C177.754 172.204 181.046 170.357 183.453 167.403L184.08 170.312L190.589 168.908L183.603 136.502L183.604 136.502ZM180.807 153.816C181.45 156.802 180.948 159.545 179.275 162.137C177.624 164.642 175.331 166.234 172.316 166.924C169.324 167.529 166.58 167.023 164.043 165.421C161.451 163.749 159.862 161.456 159.219 158.47C158.567 155.449 159.061 152.664 160.751 150.151C162.385 147.567 164.678 145.978 167.661 145.334C170.685 144.683 173.429 145.186 175.983 146.867C178.558 148.461 180.155 150.795 180.807 153.816ZM130.865 172.574C128.273 170.902 126.683 168.609 126.039 165.623C125.388 162.602 125.883 159.817 127.572 157.304C129.128 154.737 131.538 153.122 134.523 152.479C137.507 151.835 140.251 152.339 142.843 154.012C145.339 155.622 146.94 157.956 147.629 160.969C148.235 163.963 147.729 166.707 146.135 169.282C144.445 171.795 142.153 173.387 139.178 174.068C136.184 174.674 133.323 174.194 130.865 172.574ZM100.816 160.192C103.799 159.549 106.545 160.052 109.089 161.693C111.663 163.287 113.27 165.658 113.914 168.644C114.557 171.627 114.062 174.412 112.381 176.966C110.732 179.47 108.437 181.06 105.47 181.781C102.43 182.355 99.6845 181.852 97.1485 180.25C94.5659 178.615 92.9677 176.282 92.3633 173.29C91.6808 170.313 92.1675 167.49 93.8558 164.977C95.4981 162.434 97.7921 160.844 100.816 160.192Z" fill="#353132"/>
<path fill-rule="evenodd" clip-rule="evenodd" d="M179.275 162.137C180.947 159.545 181.45 156.802 180.806 153.816C180.155 150.795 178.557 148.461 175.983 146.867C173.428 145.186 170.684 144.683 167.661 145.334C164.677 145.978 162.385 147.567 160.75 150.151C159.06 152.664 158.567 155.449 159.218 158.47C159.862 161.456 161.45 163.749 164.042 165.421C166.579 167.023 169.324 167.529 172.315 166.924C175.331 166.234 177.623 164.643 179.275 162.137Z" fill="#00ACEC"/>
<path fill-rule="evenodd" clip-rule="evenodd" d="M126.04 165.623C126.684 168.609 128.273 170.901 130.865 172.574C133.324 174.193 136.185 174.674 139.179 174.068C142.154 173.387 144.446 171.795 146.136 169.282C147.729 166.707 148.236 163.962 147.629 160.968C146.941 157.956 145.34 155.622 142.844 154.011C140.252 152.339 137.508 151.835 134.524 152.478C131.538 153.122 129.129 154.737 127.573 157.304C125.884 159.817 125.389 162.602 126.04 165.623Z" fill="#F4CF30"/>
<path fill-rule="evenodd" clip-rule="evenodd" d="M109.088 161.693C106.545 160.051 103.799 159.549 100.815 160.192C97.7919 160.844 95.498 162.434 93.8556 164.977C92.1673 167.49 91.6806 170.313 92.3632 173.29C92.9675 176.282 94.5657 178.615 97.1483 180.25C99.6844 181.852 102.43 182.355 105.47 181.781C108.436 181.06 110.732 179.47 112.381 176.966C114.062 174.412 114.557 171.627 113.914 168.644C113.27 165.659 111.664 163.288 109.088 161.693Z" fill="#CC2229"/>
<path fill-rule="evenodd" clip-rule="evenodd" d="M221.574 103.777L227.005 128.971C223.621 127.388 219.812 127.033 215.394 127.985C210.549 129.03 206.809 131.621 204.139 135.807C201.464 139.953 200.645 144.428 201.697 149.312C202.734 154.119 205.324 157.86 209.479 160.575C213.628 163.25 218.102 164.07 222.948 163.025C226.901 162.172 230.271 160.108 232.988 156.723L233.615 159.631L239.428 158.378L227.386 102.524L221.574 103.777ZM229.994 143.212C230.638 146.197 230.135 148.941 228.463 151.533C226.811 154.038 224.519 155.63 221.503 156.319C218.512 156.925 215.765 156.419 213.23 154.817C210.638 153.145 209.05 150.852 208.444 147.858C207.755 144.845 208.248 142.06 209.938 139.547C211.57 136.964 213.866 135.373 216.849 134.73C219.872 134.078 222.616 134.582 225.171 136.263C227.744 137.857 229.343 140.191 229.994 143.212Z" fill="#353132"/>
<path fill-rule="evenodd" clip-rule="evenodd" d="M228.461 151.533C230.133 148.942 230.636 146.198 229.992 143.212C229.341 140.191 227.743 137.857 225.168 136.263C222.614 134.582 219.87 134.079 216.847 134.731C213.863 135.374 211.568 136.964 209.936 139.547C208.246 142.06 207.753 144.845 208.442 147.858C209.048 150.852 210.636 153.145 213.228 154.818C215.763 156.42 218.51 156.925 221.501 156.32C224.518 155.63 226.81 154.039 228.461 151.533Z" fill="#CAD843"/>
<path fill-rule="evenodd" clip-rule="evenodd" d="M38.8527 149.538L35.7343 147.493C32.226 145.896 28.5898 145.586 24.8165 146.52L10.4374 149.62L22.4202 205.201L26.1795 204.39C33.8787 202.853 39.4354 201.533 42.8796 200.386L46.2537 198.726L48.0409 197.043C50.1571 195.006 51.5816 192.59 52.3956 189.776C53.2923 186.786 53.2777 183.707 52.4761 180.554C51.8038 178.127 50.5716 175.892 48.8785 174.028C47.1958 172.241 45.3498 171.016 43.2167 170.34L42.4155 169.824C42.0779 169.573 41.9416 169.318 42.1068 168.958C43.6269 166.602 44.5026 164.264 44.5136 161.869C44.7814 159.539 44.3273 157.244 43.2025 154.85C42.2758 153.041 41.0319 151.413 39.5298 150.044L38.8527 149.538ZM22.2618 171.165L18.5932 154.149L28.483 152.422C30.1727 152.545 31.696 153.027 32.96 153.809C34.3573 154.644 35.4244 155.833 36.1932 157.331C36.916 158.831 37.2462 160.49 37.1529 162.153C37.0777 165.011 35.3005 167.3 31.8098 168.985L28.2257 170.042L22.2618 171.165ZM42.8063 177.85C44.1066 178.989 45.0641 180.607 45.6404 182.714C46.2073 184.784 46.2126 186.689 45.6557 188.431C44.8756 190.831 43.2702 192.797 40.7335 194.198L40.2936 194.415L27.9012 197.329L23.5891 177.328L30.4496 175.849L30.4664 175.927C33.0469 175.289 35.4682 175.05 37.6912 175.383C39.8213 175.856 41.5061 176.711 42.8063 177.85ZM59.1552 163.941L52.489 165.378L59.3495 197.2L66.0157 195.763L59.1552 163.941ZM56.7905 152.973L50.1243 154.41L51.6285 161.387L58.2947 159.95L56.7905 152.973ZM64.6712 138.538L58.0438 139.966L69.8928 194.927L76.5202 193.498L64.6712 138.538ZM75.0202 136.306L68.3151 137.752L80.1641 192.712L86.8692 191.267L75.0202 136.306Z" fill="#353132"/>
</svg>
