<svg width="137" height="126" viewBox="0 0 137 126" fill="none" xmlns="http://www.w3.org/2000/svg">
<path d="M103.481 31.6732C102.652 15.6946 106.752 9.36469 114.305 8.97287C121.278 8.6112 125.283 13.9382 125.735 22.6537C125.789 23.6996 125.91 24.9167 126.191 25.8343L126.221 26.4154L117.506 26.8675C117.301 26.2955 117.14 25.43 117.08 24.2679L116.781 18.5156C116.697 16.8887 115.945 15.879 114.551 15.9513C113.156 16.0237 112.339 17.1148 112.438 19.0322L113.864 46.5152C113.964 48.4327 114.889 49.4333 116.284 49.361C117.678 49.2886 118.321 48.2066 118.237 46.5797L117.939 40.8274C117.878 39.6654 117.949 38.7878 118.093 38.1977L126.809 37.7456L126.839 38.3266C126.603 39.3876 126.66 40.4915 126.729 41.8279C127.182 50.5435 123.749 56.2562 116.777 56.6179C109.223 57.0097 104.491 51.1379 103.662 35.1594L103.481 31.6732Z" fill="#121212"/>
<path d="M91.668 10.73L100.384 10.2779L102.795 56.7608L94.0791 57.2129L91.668 10.73Z" fill="#121212"/>
<path d="M69.0098 11.9053L76.5632 11.5135L82.7076 34.4988L83.2887 34.4686L81.2115 11.2723L89.3461 10.8504L91.7572 57.3333L84.2038 57.7252L78.0593 34.7399L77.4783 34.77L79.5555 57.9663L71.4209 58.3882L69.0098 11.9053Z" fill="#121212"/>
<path d="M44.3113 34.7425C43.4825 18.764 47.5238 12.437 55.0773 12.0452C62.6308 11.6534 67.305 17.5283 68.1338 33.5068L68.3147 36.993C69.1435 52.9715 65.1022 59.2984 57.5487 59.6903C49.9952 60.0821 45.321 54.2072 44.4922 38.2287L44.3113 34.7425ZM54.6941 49.5846C54.7936 51.502 55.7775 52.4996 57.172 52.4273C58.5665 52.355 59.4419 51.2609 59.3424 49.3435L57.9168 21.8604C57.8174 19.943 56.8334 18.9453 55.439 19.0177C54.0445 19.09 53.1691 20.1841 53.2685 22.1015L54.6941 49.5846Z" fill="#121212"/>
<path d="M20.2176 35.9925C19.3887 20.014 23.4882 13.684 31.0416 13.2922C38.0141 12.9305 42.019 18.2575 42.4711 26.973C42.5254 28.0189 42.6468 29.2361 42.9274 30.1537L42.9576 30.7347L34.242 31.1868C34.0376 30.6148 33.8761 29.7493 33.8159 28.5872L33.5175 22.835C33.4331 21.208 32.6816 20.1983 31.2871 20.2707C29.8926 20.343 29.0753 21.4341 29.1748 23.3515L30.6004 50.8346C30.6998 52.752 31.6256 53.7526 33.0201 53.6803C34.4146 53.608 35.0576 52.5259 34.9732 50.899L34.6748 45.1468C34.6146 43.9847 34.6856 43.1071 34.8297 42.517L43.5453 42.0649L43.5754 42.646C43.3392 43.7069 43.3964 44.8109 43.4657 46.1473C43.9178 54.8628 40.4855 60.5756 33.5131 60.9372C25.9596 61.3291 21.2272 55.4572 20.3984 39.4787L20.2176 35.9925Z" fill="#121212"/>
<path d="M8.4043 15.0488L17.1199 14.5967L19.531 61.0797L10.8155 61.5318L8.4043 15.0488Z" fill="#121212"/>
<path d="M103.662 35.1594C104.49 51.1377 109.223 57.0099 116.776 56.6183C123.749 56.2566 127.182 50.5435 126.729 41.8279C126.66 40.4916 126.603 39.3872 126.839 38.3263L126.809 37.746L118.093 38.1981C117.949 38.7882 117.878 39.666 117.938 40.8279L118.237 46.5799L118.244 46.8787C118.238 48.3382 117.591 49.2938 116.283 49.3616C114.976 49.4293 114.081 48.5535 113.892 46.8639L113.864 46.5153L112.439 19.0327C112.339 17.1154 113.156 16.0239 114.55 15.9514C115.945 15.8791 116.697 16.8892 116.781 18.5161L117.079 24.2681C117.14 25.4301 117.301 26.2957 117.506 26.8677L126.221 26.4156L126.191 25.8343C125.911 24.9167 125.789 23.6994 125.735 22.6535C125.283 13.9381 121.277 8.61166 114.305 8.97333C106.752 9.36533 102.652 15.6949 103.481 31.6729L103.662 35.1594ZM134.885 39.0013L134.672 39.953C134.671 39.9779 134.67 40.0152 134.669 40.0656C134.668 40.1801 134.67 40.338 134.679 40.5697C134.688 40.8081 134.701 41.0673 134.719 41.4135C134.996 46.7511 134.161 52.2479 131.236 56.7287C128.08 61.5623 123.069 64.3026 117.191 64.6075C114.211 64.762 111.096 64.3125 108.134 62.8595C105.312 61.475 103.045 59.3823 101.293 56.8386L102.793 56.7608L100.382 10.2774L98.883 10.3551C100.363 7.644 102.399 5.3277 105.063 3.65881C107.859 1.90709 110.911 1.13866 113.89 0.984072C119.768 0.679162 125.037 2.8853 128.675 7.36639C132.049 11.5205 133.447 16.9015 133.724 22.2391C133.744 22.6273 133.773 22.9725 133.81 23.2506C133.828 23.3859 133.844 23.4796 133.855 23.5348C133.856 23.5403 133.857 23.5452 133.858 23.5494L134.13 24.4368L134.885 39.0013Z" fill="#E0E0E0"/>
<path d="M100.382 10.2776L91.6674 10.7296L94.0785 57.213L102.793 56.761L100.382 10.2776ZM108.434 11.0676C104.721 14.0857 102.903 20.5347 103.481 31.6731L103.662 35.1596C104.24 46.2977 106.716 52.5231 110.72 55.1411L111.197 64.3358L86.5037 65.6167L86.0893 57.6274L91.7574 57.3334L89.3463 10.85L83.6781 11.144L83.2637 3.15479L107.957 1.87389L108.434 11.0676Z" fill="#E0E0E0"/>
<path d="M89.347 10.85L81.2125 11.272L83.29 34.469L82.7087 34.4991L76.5644 11.5131L69.0111 11.9049L71.4223 58.3883L79.5569 57.9664L77.4794 34.7704L78.0607 34.7402L84.2049 57.7253L91.7582 57.3335L89.347 10.85ZM94.0793 57.2131L99.7475 56.919L100.162 64.9083L63.8475 66.792L63.3719 57.6246C67.0913 54.6196 68.8943 48.1672 68.3147 36.9932L68.1338 33.5067C67.5541 22.3323 65.0936 16.1002 61.0829 13.4965L60.6074 4.33008L96.9219 2.44637L97.3363 10.4356L91.6681 10.7296L94.0793 57.2131Z" fill="#E0E0E0"/>
<path d="M68.1331 33.5067C67.3042 17.5286 62.6304 11.6541 55.0771 12.0458C47.5237 12.4376 43.4819 18.7642 44.3107 34.7424L44.4915 38.2289C45.3204 54.2075 49.9951 60.0826 57.5486 59.6907C65.1019 59.2988 69.1428 52.9716 68.314 36.9932L68.1331 33.5067ZM59.3421 49.3437L59.3495 49.6934C59.3302 51.3938 58.4791 52.3602 57.1718 52.4281C55.8645 52.4959 54.918 51.6227 54.7229 49.9334L54.6941 49.5848L53.2685 22.1022C53.169 20.1848 54.0443 19.0902 55.4388 19.0179C56.8332 18.9457 57.8171 19.9438 57.9165 21.8611L59.3421 49.3437ZM71.4216 58.3883L72.943 58.3094C71.4743 61.0129 69.4488 63.3279 66.792 64.9983C63.996 66.7562 60.9421 67.5254 57.963 67.68C54.9839 67.8345 51.8667 67.3854 48.9039 65.9262C45.9207 64.457 43.566 62.1957 41.7865 59.4523C41.385 58.8332 41.0111 58.1855 40.662 57.5118C42.7626 54.9263 43.7186 51.0035 43.4667 46.1472C43.3974 44.8108 43.3402 43.7065 43.5765 42.6456L43.5464 42.0653L36.7791 42.4163C36.6609 41.1893 36.569 39.9308 36.5023 38.6434L36.3214 35.1568C36.2494 33.7681 36.2099 32.4099 36.2051 31.0851L42.9587 30.7348L42.9285 30.1536C42.6479 29.236 42.5264 28.0186 42.4721 26.9727C42.2201 22.116 40.8638 18.3125 38.5066 15.9583C38.7839 15.2526 39.0893 14.5707 39.4244 13.9139C40.9104 11.001 43.0185 8.50727 45.8337 6.73725C48.6295 4.97949 51.6837 4.21109 54.6627 4.05656C57.6418 3.90206 60.7589 4.35023 63.7217 5.80936C66.537 7.19589 68.7913 9.28908 70.5318 11.826L69.0104 11.9049L71.4216 58.3883Z" fill="#E0E0E0"/>
<path d="M20.3999 39.4783C21.2287 55.4565 25.9612 61.3287 33.5145 60.9371C40.4869 60.5754 43.9198 54.8623 43.4677 46.1468C43.3984 44.8104 43.3413 43.7061 43.5775 42.6452L43.5474 42.0649L34.8316 42.517C34.6875 43.1071 34.6163 43.9848 34.6766 45.1467L34.975 50.8988L34.9826 51.1976C34.9763 52.657 34.3289 53.6126 33.0217 53.6804C31.7145 53.7481 30.8191 52.8724 30.6303 51.1828L30.6025 50.8342L29.1769 23.3516C29.0774 21.4343 29.8943 20.3427 31.2887 20.2703C32.6831 20.1979 33.4348 21.208 33.5192 22.8349L33.8176 28.587C33.8779 29.749 34.0394 30.6146 34.2439 31.1865L42.9597 30.7344L42.9295 30.1532C42.6489 29.2356 42.5274 28.0182 42.4731 26.9723C42.021 18.257 38.0154 12.9305 31.0431 13.2922C23.4899 13.6842 19.3903 20.0138 20.2191 35.9918L20.3999 39.4783ZM47.8455 15.5283C45.089 18.955 43.8108 25.0862 44.3117 34.742L44.4925 38.2286C44.9934 47.8839 46.8994 53.8492 49.9953 56.9726C49.4774 58.3957 48.8124 59.7636 47.9742 61.0476C44.8186 65.8812 39.8071 68.6215 33.9289 68.9264C30.9497 69.0808 27.8342 68.6314 24.8721 67.1783C22.0499 65.7939 19.7838 63.7012 18.0315 61.1574L19.5314 61.0796L17.1202 14.5962L15.6213 14.674C17.1009 11.9629 19.1376 9.64655 21.8012 7.97766C24.5971 6.22594 27.6494 5.45751 30.6286 5.30292C36.5068 4.99801 41.7749 7.20415 45.4137 11.6852C46.38 12.8753 47.1833 14.1667 47.8455 15.5283Z" fill="#E0E0E0"/>
<path d="M17.1185 14.5964L8.40368 15.0485L10.8149 61.5319L19.5297 61.0798L17.1185 14.5964ZM25.1703 15.3864C21.4577 18.4045 19.6396 24.8535 20.2174 35.992L20.3982 39.4785C20.976 50.6165 23.4519 56.8419 27.4564 59.46L27.9334 68.6547L3.24003 69.9356L0 7.47363L24.6934 6.19274L25.1703 15.3864Z" fill="#E0E0E0"/>
<rect x="15.5312" y="62.855" width="112" height="63" transform="rotate(-4.1144 15.5312 62.855)" fill="#FEE935"/>
<path d="M118.077 82.6056L117.99 83.1935L116.824 83.6004C116.565 83.6908 116.331 83.9578 116.215 84.1289L111.31 91.3961L109.77 98.2927C109.69 98.6531 109.844 98.845 110.072 98.8848L111.511 99.1364L111.361 99.7289L104.288 100.238L104.439 99.6451L105.734 99.2295C106.085 99.1165 106.264 98.8984 106.358 98.4733L107.893 91.5128L105.647 84.9861C105.539 84.6736 105.435 84.4159 105.084 84.3479L104.232 84.1832L104.319 83.5953L110.362 83.1606L110.275 83.7485L109.267 84.1119C108.915 84.239 108.844 84.4299 108.96 84.7799L110.814 90.3333L114.709 84.3015C114.783 84.1881 114.822 84.0674 114.815 83.9709C114.806 83.8431 114.692 83.7591 114.539 83.7326L113.361 83.5265L113.481 82.9363L118.077 82.6056Z" fill="black"/>
<path d="M104.267 87.3787L103.464 87.4365L102.602 85.3341C102.443 84.947 102.243 84.843 101.858 84.8707L100.09 84.9979L96.9443 99.2152C96.8641 99.5745 96.9813 99.768 97.3118 99.8347L98.4918 100.073L98.3405 100.665L91.4298 101.162L91.581 100.57L92.781 100.193C93.3137 100.026 93.4222 99.8504 93.5296 99.3633L96.6501 85.2453L94.5927 85.3933C94.2736 85.4163 94.0368 85.6395 93.8558 85.9306L92.5524 88.0275L91.7489 88.0853L92.748 84.0075L93.2622 83.9705C93.4107 84.2486 93.6162 84.365 93.9029 84.3444L102.55 83.7224C103.032 83.6877 103.184 83.5471 103.356 83.2444L103.903 83.2051L104.267 87.3787ZM91.4281 88.1086L90.624 88.1664L89.7045 86.1651C89.5652 85.8601 89.3201 85.7728 89.0318 85.7935L85.7531 86.0294L84.3417 92.4636L87.4601 92.2393C87.7809 92.2162 87.9634 92.0439 88.1645 91.7038L88.9418 90.3876L89.7459 90.3298L88.6279 95.4509L87.8238 95.5087L87.7291 93.7384C87.712 93.4188 87.5067 93.3344 87.1843 93.3576L84.0985 93.5796L82.5411 100.671L87.0731 100.345C87.6806 100.302 87.904 100.168 88.194 99.7473L89.8317 97.3676L90.7002 97.3051L89.1799 101.777L88.6012 101.818C88.4171 101.508 88.1798 101.396 87.6043 101.438L77.2209 102.185L77.3727 101.592L78.6029 101.181C78.9204 101.074 79.1021 100.852 79.1952 100.427L82.2127 86.6713C82.2702 86.4063 82.1674 86.1834 81.9805 86.139L80.8302 85.8661L80.949 85.2759L89.9176 84.6307C90.2208 84.6089 90.4546 84.463 90.5947 84.1621L91.1094 84.125L91.4281 88.1086Z" fill="black"/>
<path d="M117.604 78.2774C110.204 80.5338 101.02 82.0874 93.1673 82.6522C73.559 84.0627 59.609 82.3843 53.6912 81.4211L30.8339 106.394L28.859 106.795L34.4826 84.3535C33.3795 85.0419 29.5845 86.3213 27.8252 86.5775C27.2643 86.6586 27.2308 86.3492 27.4738 86.1828C29.1051 85.0633 29.8594 84.2163 30.4843 82.2175C34.0833 82.8236 36.7023 81.964 39.831 80.5435L34.6328 99.4644L50.6364 79.379C61.8636 80.9425 73.7107 81.0791 82.7657 80.4277C91.21 79.8203 98.5366 77.9564 102.23 76.1197C107.825 78.9294 113.947 78.2148 117.437 77.7399C117.944 77.6713 118.042 78.1441 117.604 78.2774Z" fill="black"/>
<path d="M80.1444 85.334L80.0251 85.9243L78.7026 86.4072C78.4479 86.5 78.3321 86.6631 78.2596 86.9881L75.2357 100.647C75.1456 101.055 75.0744 101.317 75.5829 101.43L76.5681 101.65L76.4169 102.242L70.0204 102.702L70.1711 102.11L71.0828 101.754C71.5908 101.555 71.7374 101.353 71.8308 100.924L74.8182 87.2035C74.8807 86.9178 74.7603 86.7256 74.554 86.673L73.4677 86.396L73.5864 85.8058L80.1444 85.334ZM70.8905 90.103C71.0713 92.617 69.2342 94.9404 65.9792 95.0444C65.4159 95.063 64.6169 95.0128 64.0944 94.8891C64.3155 97.9622 65.4838 101.025 67.3047 100.894C68.4301 100.814 68.6942 99.8475 68.7869 99.0433C68.8027 98.9126 68.9008 98.8102 69.0722 98.958C69.5348 99.3586 69.95 99.9323 70.0145 100.829C70.1502 102.716 69.0195 103.647 67.2211 103.776C62.6651 104.104 61.9876 97.5672 62.4426 93.4895C62.4676 93.2648 62.5536 93.2238 62.7203 93.3077C63.3257 93.6145 64.0097 93.7645 64.9455 93.6972C66.4194 93.5912 67.7217 92.3218 67.57 90.2127C67.4183 88.1042 65.5739 86.9316 62.9858 87.1177L59.7465 101.826C59.7146 101.971 59.7007 102.089 59.7075 102.184C59.7212 102.375 59.8056 102.476 60.0223 102.517L61.2672 102.75L61.1155 103.343L54.7189 103.804L54.8702 103.21L55.8134 102.852C56.1032 102.742 56.2334 102.556 56.3394 102.072L59.5467 87.3651C57.7352 87.8864 56.8904 88.6291 56.9662 89.6831C57.0099 90.29 57.168 90.5668 57.3713 90.8168C57.4489 90.9129 57.4847 91.0239 57.4909 91.1317C57.5037 91.3691 57.3165 91.5963 56.7197 91.6392C55.7611 91.7082 54.8479 91.2248 54.7508 89.8751C54.6933 89.0763 54.9911 86.3355 62.0206 85.8299C67.9727 85.4017 70.6767 87.1317 70.8905 90.103ZM50.1703 90.4304L44.1653 99.0371L50.0157 98.6163L50.1703 90.4304ZM54.5168 103.236L54.3655 103.829L48.3217 104.264L48.473 103.671L49.5131 103.305C49.8083 103.202 49.9423 102.98 49.9491 102.628L50.0053 99.8125L43.2219 100.3L41.1984 103.161C41.0676 103.345 40.9958 103.486 41.0036 103.595C41.0138 103.736 41.0971 103.822 41.2812 103.865L42.3333 104.113L42.1821 104.705L37.1028 105.071L37.2866 104.476L38.3285 104.142C38.6944 104.025 39.0461 103.717 39.3066 103.361L51.8718 86.2368L53.2681 85.8777L53.1337 102.431C53.1307 102.784 53.1959 103.005 53.6001 103.076L54.5168 103.236Z" fill="black"/>
</svg>
