<svg width="169" height="114" viewBox="0 0 169 114" fill="none" xmlns="http://www.w3.org/2000/svg">
<path d="M130.946 36.3717C127.303 20.7919 130.218 13.8365 137.583 12.1145C144.381 10.5249 149.266 15.0592 151.252 23.5573C151.491 24.5771 151.826 25.7536 152.264 26.607L152.397 27.1736L143.899 29.1606C143.596 28.6338 143.284 27.8104 143.019 26.6774L141.708 21.0686C141.337 19.4823 140.419 18.6215 139.059 18.9394C137.699 19.2574 137.088 20.4758 137.525 22.3454L143.791 49.1426C144.228 51.0122 145.316 51.8333 146.676 51.5154C148.035 51.1975 148.477 50.0187 148.106 48.4324L146.795 42.8237C146.53 41.6906 146.444 40.8143 146.482 40.208L154.98 38.2211L155.112 38.7876C155.067 39.8736 155.319 40.95 155.624 42.2531C157.611 50.7511 155.243 56.981 148.445 58.5706C141.08 60.2927 135.383 55.3507 131.741 39.7709L130.946 36.3717Z" fill="#121212"/>
<path d="M115.613 17.8491L124.111 15.8621L134.709 61.1852L126.21 63.1722L115.613 17.8491Z" fill="#121212"/>
<path d="M107.696 51.0697C108.112 51.57 108.407 52.5766 108.632 53.5397L109.612 57.7321C110.023 59.4883 111.081 60.4359 112.384 60.1313C113.744 59.8134 114.272 58.4948 113.808 56.512C112.961 52.8861 109.8 50.0999 106.539 47.3968L104.392 45.6281C99.3608 41.4867 96.993 38.515 95.8273 33.5295C94.304 27.0143 97.1533 21.568 103.555 20.0711C110.07 18.5478 114.699 22.2455 116.382 29.4406C116.7 30.8003 116.995 31.8068 117.49 32.647L117.622 33.2136L109.974 35.0018C109.602 34.4316 109.29 33.6083 109.038 32.5319L108.151 28.7361C107.727 26.9232 106.665 26.2154 105.475 26.4936C104.229 26.785 103.478 27.9167 104.007 30.1828C104.789 33.5254 107.102 35.4942 110.336 38.084L112.539 39.8394C117.601 43.8543 120.611 47.2733 121.909 52.8254C123.525 59.7371 120.649 65.0701 114.474 66.514C107.562 68.1301 103.003 64.4757 101.149 56.5442C100.831 55.1845 100.549 54.2346 100.067 53.451L99.9345 52.8845L107.696 51.0697Z" fill="#121212"/>
<path d="M85.9695 56.1493C86.3853 56.6496 86.6804 57.6561 86.9056 58.6193L87.8858 62.8116C88.2964 64.5679 89.3545 65.5155 90.6576 65.2109C92.0172 64.893 92.5455 63.5744 92.0818 61.5915C91.2341 57.9657 88.0731 55.1795 84.812 52.4764L82.6657 50.7077C77.6343 46.5663 75.2664 43.5946 74.1007 38.6091C72.5774 32.0939 75.4268 26.6476 81.8287 25.1507C88.3439 23.6274 92.9728 27.3251 94.6551 34.5202C94.973 35.8799 95.2681 36.8864 95.7633 37.7266L95.8958 38.2932L88.2475 40.0814C87.8752 39.5112 87.5632 38.6879 87.3115 37.6115L86.424 33.8157C86.0001 32.0028 84.9383 31.295 83.7486 31.5732C82.5022 31.8646 81.751 32.9962 82.2809 35.2624C83.0624 38.605 85.3751 40.5738 88.6096 43.1636L90.8126 44.919C95.8742 48.9339 98.8844 52.3529 100.183 57.905C101.799 64.8167 98.9227 70.1497 92.7474 71.5936C85.8357 73.2097 81.2767 69.5553 79.4222 61.6238C79.1042 60.2641 78.8224 59.3142 78.3404 58.5306L78.208 57.9641L85.9695 56.1493Z" fill="#121212"/>
<path d="M54.2588 32.1945L66.7226 29.2803L81.4364 73.0433L81.5689 73.6098L73.6373 75.4643L70.1574 64.9253L66.9848 65.6671L68.5385 76.6565L60.607 78.511L60.4745 77.9445L54.2588 32.1945ZM65.3194 58.2889L68.3787 57.5736L63.4895 42.2852L62.923 42.4177L65.3194 58.2889Z" fill="#121212"/>
<path d="M33.6973 37.002L42.1953 35.015L51.0705 72.973L58.1522 71.3172L59.8743 78.6822L44.2945 82.325L33.6973 37.002Z" fill="#121212"/>
<path d="M14.645 63.5646C11.0022 47.9848 13.917 41.0294 21.282 39.3074C28.0805 37.7178 32.9647 42.2521 34.9517 50.7502C35.1901 51.77 35.525 52.9464 35.9635 53.7999L36.096 54.3665L27.5979 56.3534C27.2955 55.8266 26.9835 55.0033 26.7186 53.8702L25.4072 48.2615C25.0363 46.6752 24.118 45.8144 22.7583 46.1323C21.3986 46.4502 20.7872 47.6687 21.2244 49.5383L27.4899 76.3355C27.9271 78.2051 29.0153 79.0262 30.375 78.7082C31.7347 78.3903 32.1761 77.2116 31.8052 75.6253L30.4938 70.0166C30.2289 68.8835 30.1435 68.0072 30.181 67.4009L38.6791 65.4139L38.8115 65.9805C38.7667 67.0665 39.0184 68.1429 39.323 69.4459C41.31 77.944 38.9426 84.1739 32.1441 85.7635C24.7791 87.4855 19.0826 82.5436 15.4398 66.9638L14.645 63.5646Z" fill="#121212"/>
<path d="M131.741 39.7709C135.383 55.3506 141.08 60.2928 148.445 58.5709C155.244 56.9813 157.611 50.751 155.624 42.2529C155.32 40.9499 155.067 39.8733 155.112 38.7873L154.98 38.2215L146.482 40.2084C146.445 40.8146 146.53 41.6911 146.795 42.824L148.106 48.4325L148.166 48.7255C148.418 50.163 147.951 51.2179 146.676 51.5159C145.316 51.8338 144.228 51.0123 143.791 49.1428L137.525 22.346C137.088 20.4764 137.7 19.2574 139.059 18.9394C140.419 18.6215 141.338 19.4827 141.708 21.069L143.02 26.6775C143.285 27.8105 143.597 28.6338 143.899 29.1606L152.397 27.1738L152.264 26.6071C151.826 25.7536 151.492 24.5766 151.253 23.5569C149.266 15.0591 144.381 10.5253 137.583 12.1149C130.218 13.837 127.303 20.792 130.946 36.3714L131.741 39.7709ZM163.15 38.0281L163.111 39.0032C163.114 39.0279 163.118 39.0648 163.126 39.1138C163.145 39.2267 163.175 39.3818 163.225 39.6083C163.276 39.8414 163.335 40.094 163.414 40.4315C164.631 45.6359 164.782 51.1936 162.696 56.1213C160.446 61.437 155.998 65.0207 150.266 66.3608C147.362 67.04 144.216 67.1488 141.043 66.2427C138.02 65.3794 135.419 63.7211 133.244 61.5273L134.708 61.1851L124.111 15.8617L122.648 16.2036C123.625 13.2733 125.22 10.6333 127.547 8.51932C129.989 6.30054 132.857 5.00421 135.762 4.32498C141.493 2.98488 147.068 4.22408 151.443 7.99074C155.497 11.4825 157.826 16.5312 159.043 21.7356C159.131 22.1141 159.221 22.4487 159.306 22.716C159.348 22.8459 159.38 22.9354 159.401 22.9877C159.403 22.9929 159.405 22.9976 159.406 23.0015L159.83 23.8271L163.15 38.0281Z" fill="#E0E0E0"/>
<path d="M124.111 15.8616L115.613 17.8484L126.211 63.1719L134.708 61.1851L124.111 15.8616ZM132.175 15.2146C129.055 18.8419 128.407 25.5107 130.946 36.3713L131.741 39.7708C134.28 50.631 137.818 56.3201 142.223 58.1883L144.319 67.1536L120.242 72.7832L118.376 64.8002C121.781 62.3792 123.132 58.0553 121.909 52.8248C120.692 47.6198 117.97 44.2894 113.464 40.5853L112.539 39.8387L111.334 34.6838L117.622 33.2135L117.49 32.6467C116.995 31.8065 116.7 30.7994 116.382 29.4397C115.099 23.9546 112.103 20.5057 107.865 19.8495L106.002 11.8799L130.079 6.25029L132.175 15.2146Z" fill="#E0E0E0"/>
<path d="M126.21 63.1721L129.467 62.4106C129.131 63.4779 128.694 64.5224 128.146 65.5326C125.648 70.141 121.351 73.1218 116.295 74.304C111.052 75.5298 105.6 74.9266 101.067 71.473C99.9462 70.6195 98.9635 69.6514 98.1011 68.5991C100.414 66.0747 101.212 62.312 100.182 57.905C99.044 53.0387 96.5909 49.8112 92.5941 46.3847L93.4385 46.1873C91.8184 44.2708 90.4885 42.2061 89.4681 39.7965L95.8953 38.2937L95.7628 37.7269C95.2676 36.8867 94.9728 35.8796 94.6549 34.5199C93.5687 29.8746 91.2526 26.6899 87.9951 25.4243C88.3729 23.907 88.9466 22.4259 89.7376 21.0123C92.2767 16.4741 96.5928 13.4833 101.734 12.2813C106.933 11.0657 112.224 11.8251 116.575 15.0824C117.395 15.6967 118.144 16.3726 118.827 17.0971L115.613 17.8486L126.21 63.1721ZM95.8263 33.529C96.992 38.5145 99.3604 41.4866 104.392 45.628L106.538 47.3967C109.799 50.0996 112.959 52.8859 113.807 56.5114C114.271 58.4943 113.743 59.813 112.383 60.1309C111.08 60.4353 110.022 59.488 109.612 57.7321L108.632 53.5395C108.406 52.5765 108.112 51.5698 107.696 51.0694L99.9337 52.8844L100.066 53.4511C100.548 54.2347 100.83 55.1842 101.148 56.5438C103.003 64.4753 107.562 68.1301 114.473 66.5141C120.649 65.0702 123.524 59.7368 121.908 52.8251C120.61 47.2731 117.6 43.8538 112.539 39.8389L110.335 38.0836C107.202 35.5749 104.933 33.6488 104.084 30.492L104.007 30.1831C103.477 27.9169 104.229 26.7846 105.475 26.4932C106.664 26.2152 107.726 26.9234 108.15 28.7361L109.037 32.5322C109.289 33.6084 109.601 34.4318 109.974 35.002L117.622 33.2137L117.489 32.647C116.994 31.8067 116.699 30.7997 116.381 29.44C114.699 22.2453 110.07 18.5481 103.555 20.0712C97.1534 21.568 94.3032 27.014 95.8263 33.529Z" fill="#E0E0E0"/>
<path d="M95.826 33.5287C96.9091 38.1611 99.0316 41.054 103.363 44.763L102.467 44.9725C104.033 46.8597 105.375 48.9487 106.423 51.3666L99.9334 52.8841L100.066 53.4508C100.548 54.2344 100.83 55.1839 101.148 56.5435C102.35 61.6857 104.69 65.0291 108.07 66.305C107.71 67.7857 107.168 69.2309 106.419 70.6123C103.921 75.2207 99.6238 78.2015 94.5679 79.3837C89.3249 80.6095 83.8734 80.0063 79.3399 76.5527C78.5657 75.963 77.8579 75.3177 77.2092 74.6289L81.5682 73.6097L81.4357 73.0429L66.7212 29.2798L66.6119 29.3054C66.9668 28.2062 67.4296 27.1307 68.0108 26.092C70.5499 21.5538 74.866 18.563 80.0069 17.361C85.2063 16.1454 90.4968 16.9048 94.8479 20.1621C96.0357 21.0513 97.0739 22.0681 97.9781 23.178C95.6499 25.7147 94.8625 29.4075 95.826 33.5287ZM74.0995 38.6087C75.2652 43.5942 77.6336 46.5663 82.665 50.7077L84.8116 52.4764C88.0724 55.1793 91.2327 57.9656 92.0806 61.5911C92.5442 63.574 92.016 64.8927 90.6563 65.2106C89.3535 65.515 88.2957 64.5677 87.885 62.8117L86.9047 58.6192C86.6796 57.6562 86.3848 56.6495 85.9692 56.1491L78.2069 57.9641L78.3394 58.5308C78.8213 59.3144 79.1036 60.2639 79.4215 61.6235C81.276 69.555 85.8348 73.2097 92.7465 71.5938C98.9218 70.1499 101.798 64.8165 100.182 57.9048C98.8834 52.3528 95.8734 48.9335 90.8119 44.9186L88.6083 43.1633C85.475 40.6546 83.2065 38.7285 82.3573 35.5717L82.2801 35.2628C81.7502 32.9966 82.5017 31.8643 83.7481 31.5729C84.9377 31.2949 85.9989 32.003 86.4227 33.8158L87.3103 37.6118C87.562 38.6881 87.8745 39.5115 88.2468 40.0816L95.895 38.2934L95.7625 37.7266C95.2673 36.8864 94.9726 35.8793 94.6547 34.5196C92.9723 27.325 88.3432 23.6278 81.8283 25.1509C75.4266 26.6477 72.5764 32.0937 74.0995 38.6087Z" fill="#E0E0E0"/>
<path d="M63.4897 42.2854L68.3782 57.5739L65.3191 58.2892L62.923 42.4179L63.4897 42.2854ZM68.5386 76.6567L66.985 65.6671L70.1573 64.9254L73.6374 75.4645L81.569 73.61L81.4365 73.0433L66.7221 29.2802L54.2584 32.1943L60.4745 77.9445L60.607 78.5112L68.5386 76.6567ZM79.4223 61.6238C80.9587 68.1948 84.3512 71.8296 89.4 71.9645L91.1803 79.5785L54.6385 88.1225L52.8171 80.3326L59.8748 78.6824L58.1528 71.3176L51.7056 72.825L45.3518 26.0611L71.9869 19.8334L75.2552 29.5566C73.7164 31.9832 73.2905 35.1453 74.1003 38.609C75.2333 43.4545 77.5037 46.3964 82.2495 50.3601L84.3259 56.5339L78.2077 57.9644L78.3402 58.5311C78.8221 59.3147 79.1045 60.2642 79.4223 61.6238Z" fill="#E0E0E0"/>
<path d="M42.1946 35.0149L33.6972 37.0017L44.2945 82.3252L59.8743 78.6824L58.1523 71.3176L51.0699 72.9735L42.1946 35.0149ZM57.0384 63.3623L58.4477 63.0327L60.474 77.9445L60.6065 78.5112L67.6642 76.861L69.4856 84.6509L38.326 91.9365L36.4097 83.7405C39.8531 80.92 40.8142 75.8214 39.3235 69.4459C39.0188 68.1429 38.7662 67.0663 38.811 65.9803L38.6788 65.4145L32.4645 66.8675L29.8814 55.8198L36.0956 54.3668L35.9631 53.8C35.5246 52.9466 35.1905 51.7696 34.9521 50.7499C33.4613 44.3744 30.3394 40.2304 26.0023 39.2291L24.0859 31.0332L48.1631 25.4036L57.0384 63.3623Z" fill="#E0E0E0"/>
<path d="M15.4397 66.9637C19.0824 82.5433 24.7791 87.4856 32.144 85.7636C38.9424 84.1741 41.3104 77.9437 39.3234 69.4456C39.0187 68.1427 38.7661 67.0661 38.811 65.9801L38.6787 65.4143L30.1813 67.4011C30.1438 68.0074 30.2291 68.8838 30.494 70.0168L31.8053 75.6253L31.8648 75.9182C32.1168 77.3558 31.6497 78.4106 30.3751 78.7086C29.0154 79.0265 27.9266 78.2051 27.4895 76.3355L21.224 49.5387C20.7868 47.6692 21.3985 46.4501 22.7582 46.1322C24.1179 45.8143 25.0365 46.6754 25.4074 48.2617L26.7187 53.8702C26.9836 55.0032 27.2957 55.8266 27.5982 56.3534L36.0955 54.3666L35.963 53.7998C35.5245 52.9464 35.1904 51.7694 34.952 50.7497C32.965 42.2518 28.0803 37.7181 21.2819 39.3076C13.9171 41.0297 11.0022 47.9847 14.6448 63.5642L15.4397 66.9637ZM44.2944 82.325L46.9941 81.6937C46.8193 82.2403 46.6208 82.781 46.3951 83.3141C44.1445 88.6297 39.6968 92.2134 33.9654 93.5535C31.0604 94.2327 27.9147 94.3416 24.7422 93.4355C21.548 92.5232 18.8241 90.7237 16.5771 88.3423C12.3088 83.8185 9.57229 77.0075 7.64976 68.7851L6.8549 65.3855C4.93247 57.1634 4.36561 49.8456 6.1855 43.8984C7.14362 40.7676 8.78697 37.9461 11.2456 35.7121C13.6875 33.4933 16.5556 32.197 19.4605 31.5177C25.192 30.1776 30.7673 31.4168 35.1415 35.1835C35.58 35.5611 35.997 35.9583 36.3958 36.3705L33.6971 37.0015L44.2944 82.325Z" fill="#E0E0E0"/>
<path d="M93.7578 81.3327C93.7578 81.3327 92.8131 81.5078 92.2621 81.5886C92.2772 81.8229 92.3547 83.9555 92.4024 85.6735C92.3953 87.2715 92.2104 99.1477 92.0731 102.716C92.0589 103.789 91.9694 106.829 91.9636 107.132C91.3161 107.319 90.548 107.52 90.0417 107.623C89.9737 107.636 89.8635 107.677 89.8094 107.686L89.9074 108.284C89.9696 108.271 90.304 108.243 90.5358 108.194C91.0936 108.085 92.6726 107.748 92.9743 107.699C94.1187 107.511 94.894 107.462 95.9564 107.31C95.9707 107.307 96.2608 107.259 96.3863 107.221L96.2872 106.617C96.199 106.632 96.0818 106.648 96.0135 106.659C95.7161 106.717 94.6006 106.813 94.0302 106.829C94.0309 106.423 94.0255 100.289 94.1009 97.823C94.2644 93.2552 94.3657 90.0202 94.3657 90.0202L94.5946 90.3823L104.352 105.957L105.634 105.754C105.634 105.754 106.069 103.823 106.604 101.649C106.619 101.598 106.658 101.442 106.712 101.22C107.278 98.9609 110.038 87.5156 110.038 87.5156C110.038 87.5156 110.113 87.7013 110.24 88.0344C111.014 90.0623 113.708 97.3858 114.317 99.1594C114.616 100.074 114.908 101.004 115.08 101.548C115.326 102.319 115.529 103.079 115.566 103.301C115.424 103.331 114.016 103.694 113.479 103.806C113.402 103.816 113.258 103.847 113.25 103.85L113.349 104.459C113.543 104.427 113.732 104.405 113.92 104.37C115.021 104.167 116.068 103.907 117.173 103.727C118.414 103.524 120.445 103.303 121.735 103.1C121.881 103.076 122.138 103.021 122.138 103.021L122.037 102.406C121.963 102.418 121.636 102.455 121.514 102.465C120.929 102.515 119.941 102.584 119.69 102.608C119.69 102.608 119.386 101.751 119.009 100.765C117.497 96.8219 113.065 84.8096 112.197 81.8172C111.9 80.7886 111.158 78.4911 111.158 78.4911L109.715 78.7272C109.715 78.7272 109.324 80.9634 108.968 83.0024C108.726 84.3955 108.369 86.1248 108.098 87.4504C106.763 93.9995 105.074 100.175 105.074 100.175C105.074 100.175 97.297 87.7511 96.8746 87.0282C96.4492 86.3054 93.7578 81.3327 93.7578 81.3327ZM53.5692 87.9236L53.8125 89.3315L54.3512 92.7691L54.7215 92.6976L54.26 89.6374C54.26 89.6373 56.2968 89.2855 56.5606 89.2426L60.3643 88.621L62.821 88.231L66.3051 109.469L66.6062 111.303L66.5556 111.319C66.2329 111.397 64.9881 111.68 64.4805 111.783C64.3666 111.805 64.294 111.82 64.2812 111.82L64.3853 112.441C64.4783 112.431 64.7278 112.396 64.7603 112.39C65.9659 112.176 67.5835 111.803 68.7429 111.614C69.9207 111.422 71.5967 111.265 72.6244 111.109C72.7261 111.093 72.8449 111.063 72.9425 111.047L72.847 110.464L72.72 110.486C72.3929 110.538 70.5665 110.718 70.3755 110.724C70.3211 110.441 70.0621 109.07 70.0571 109.04L66.5558 87.6167L68.4238 87.3056L73.3005 86.5099L74.9316 86.2655C74.9614 86.38 75.2972 87.9134 75.3026 87.9558C75.3174 88.0688 75.5708 89.2106 75.6147 89.4945L76.0012 89.4359L75.4045 85.9675L75.1662 84.4024C73.7395 84.6762 70.0956 85.3237 64.4273 86.2494C59.5661 87.0428 54.8752 87.7697 53.5692 87.9236ZM76.2713 84.2094L76.3769 84.8167C76.5711 84.7956 77.7188 84.7103 77.9959 84.6787C78.2198 84.6696 78.5306 84.6469 78.7533 84.6322C78.7852 84.827 79.0088 86.1703 79.0989 86.7001C79.9593 91.721 81.7484 102.836 82.3778 106.77C82.5595 107.907 82.6763 108.64 82.6763 108.64C82.5445 108.704 82.2351 108.771 81.9015 108.849C81.6163 108.916 80.5972 109.172 80.3674 109.215L80.4671 109.823C80.5628 109.807 80.7414 109.799 80.8412 109.782C82.011 109.59 83.6135 109.179 84.8118 108.983C86.0229 108.786 87.664 108.668 88.6177 108.512L88.6149 108.513C88.6977 108.501 88.8905 108.447 88.9731 108.434L88.8735 107.826L88.7909 107.839C88.7526 107.837 87.5144 107.987 87.2104 108.005C87.0522 108.021 86.3651 108.073 86.3528 108.052C86.348 108.04 86.3154 107.859 86.2657 107.556C86.2214 107.268 86.143 106.789 86.058 106.27C85.4111 102.305 83.4929 90.5264 82.7581 86.0245C82.6156 85.1545 82.5026 84.4472 82.4404 84.068C82.7024 84.0079 83.7657 83.7176 84.1472 83.62C84.164 83.6155 84.6716 83.502 84.8801 83.4548L84.7763 82.8209C83.4525 83.0373 81.7179 83.4278 80.4259 83.6388C79.0748 83.8593 77.393 84.0261 76.2713 84.2094ZM137.535 74.1886C137.535 74.1886 137.395 74.2121 137.136 74.255C136.252 74.4039 133.988 74.7918 131.341 75.2407C129.714 75.5169 128.443 75.7385 126.767 76.0124C125.593 76.2188 123.955 76.5338 122.939 76.6985C121.316 76.9617 119.976 77.0786 119.255 77.1936C118.913 77.2481 118.724 77.2922 118.63 77.3018C118.637 77.3095 118.734 77.9013 118.734 77.9013C118.798 77.902 118.926 77.8954 119.042 77.8736C119.453 77.8343 120.226 77.7709 120.622 77.7586C120.701 77.7601 120.836 77.7602 121.207 77.741C121.226 77.8762 121.495 79.3969 121.643 80.313C121.782 81.1613 124.875 100.09 124.875 100.09C124.88 100.121 125.081 101.619 125.101 101.74C124.476 101.955 123.251 102.226 122.83 102.296L122.705 102.317L122.804 102.919C122.863 102.909 123.141 102.874 123.298 102.849C123.978 102.737 125.714 102.342 127.504 102.047C128.76 101.84 130.148 101.661 131.549 101.452C133.275 101.193 135.017 100.909 136.587 100.675C139.175 100.288 141.267 99.9485 141.948 99.8378C141.948 99.8378 141.246 95.0353 141.183 94.6493L140.81 94.7147C140.877 95.1221 140.975 96.6638 140.98 96.731C141.025 97.31 141.072 97.9168 141.08 98.2182C141.08 98.2182 140.901 98.2626 140.812 98.2754C140.387 98.3369 139.04 98.6082 139.011 98.6128L132.968 99.6057L128.712 100.23L128.491 99.0573L126.99 89.9165C127.743 89.7668 128.892 89.5372 129.596 89.4235C130.194 89.3266 131.597 89.0622 132.386 88.9347C134.302 88.6242 136.007 88.3575 136.144 88.339C136.461 88.2964 137.051 88.2197 137.275 88.1969C137.297 88.2761 137.343 88.3977 137.352 88.4328C137.58 89.1142 137.723 89.5887 137.912 90.2633C137.934 90.3232 137.949 90.3821 137.967 90.437L138.402 90.3657C138.402 90.3657 138.373 90.1181 138.343 89.9662C138.246 89.4287 138.036 88.3594 137.84 87.1681C137.702 86.3427 137.544 85.0723 137.45 84.4641C137.426 84.2994 137.387 84.186 137.379 84.139L136.982 84.212C137.001 84.3437 137.001 84.5424 137.001 84.5424C137.041 85.0006 137.008 85.6001 137.005 86.2272C136.989 86.3078 136.987 86.4173 136.987 86.4173C136.944 86.4401 135.705 86.7115 135.594 86.7288C135.551 86.7356 133.74 87.0846 133.709 87.0897L126.713 88.2091L125.073 78.1272C125.073 78.1272 125.956 77.9503 126.204 77.911C127.211 77.7461 128.85 77.4682 130.521 77.1968C132.967 76.799 135.343 76.4253 135.35 76.4278C135.365 76.4324 136.09 76.324 136.106 76.3341C136.125 76.3449 137.035 76.2237 137.258 76.1944C137.258 76.1944 137.288 76.2667 137.315 76.3593C137.588 77.4058 137.878 78.6545 137.988 79.0957L138.02 79.2743L138.393 79.212C138.286 78.5576 137.923 76.5589 137.708 75.2847C137.639 74.8756 137.592 74.5407 137.561 74.351L137.535 74.1886Z" fill="#E90606"/>
</svg>
