<svg width="227" height="171" viewBox="0 0 227 171" fill="none" xmlns="http://www.w3.org/2000/svg">
<path d="M201.682 90.9868L210.348 92.0161L205.751 130.726L212.973 131.584L212.081 139.094L196.192 137.207L201.682 90.9868Z" fill="#121212"/>
<path d="M183.177 88.789L195.888 90.2986L194.8 136.456L194.731 137.034L186.643 136.073L186.964 124.979L183.729 124.595L181.443 135.456L173.354 134.495L173.423 133.917L183.177 88.789ZM184.679 117.091L187.799 117.461L188.414 101.422L187.837 101.354L184.679 117.091Z" fill="#121212"/>
<path d="M168.725 87.0728L177.391 88.102L171.902 134.323L163.235 133.293L168.725 87.0728Z" fill="#121212"/>
<path d="M146.869 84.4771L167.091 86.8787L166.199 94.3895L160.421 93.7033L155.824 132.413L147.157 131.384L151.755 92.6741L145.977 91.9879L146.869 84.4771Z" fill="#121212"/>
<path d="M125.033 81.8838L132.544 82.7758L134.71 106.469L135.288 106.538L137.166 83.3248L145.255 84.2854L139.765 130.506L132.254 129.614L130.088 105.92L129.51 105.852L127.632 129.065L119.544 128.104L125.033 81.8838Z" fill="#121212"/>
<path d="M107.592 79.8125L123.191 81.6652L122.299 89.176L115.366 88.3526L113.994 99.9078L120.06 100.628L119.168 108.139L113.102 107.419L111.661 119.552L118.594 120.375L117.702 127.886L102.102 126.033L107.592 79.8125Z" fill="#121212"/>
<path d="M83.8848 76.9966L92.5511 78.0259L88.1664 114.945C87.94 116.851 88.452 117.967 89.8387 118.131C91.2253 118.296 91.9843 117.331 92.2108 115.425L96.5954 78.5062L105.262 79.5354L101.145 114.201C100.253 121.712 95.6595 125.853 89.0152 125.064C82.371 124.275 78.8757 119.173 79.7677 111.662L83.8848 76.9966Z" fill="#121212"/>
<path d="M67.1895 75.0137L75.8558 76.0429L71.2584 114.753L78.4804 115.61L77.5884 123.121L61.7 121.234L67.1895 75.0137Z" fill="#121212"/>
<path d="M44.5086 119.193L49.998 72.9722L65.5975 74.8249L64.7055 82.3357L57.7724 81.5123L56.4 93.0674L62.1776 93.7536L61.2856 101.264L55.508 100.578L53.175 120.222L44.5086 119.193Z" fill="#121212"/>
<path d="M27.4688 70.2964L34.9796 71.1884L37.1458 94.882L37.7236 94.9506L39.6017 71.7374L47.6903 72.698L42.2008 118.919L34.69 118.027L32.5238 94.333L31.946 94.2644L30.0679 117.478L21.9793 116.517L27.4688 70.2964Z" fill="#121212"/>
<path d="M16.4824 68.9917L25.1488 70.021L19.6594 116.242L10.993 115.212L16.4824 68.9917Z" fill="#121212"/>
<path d="M183.211 24.3432C190.491 25.2078 195.433 30.9508 194.37 39.906C193.684 45.6836 191.566 48.7132 188.018 51.4557L190.039 71.4407L189.97 72.0185L181.593 71.0235L180.385 53.0686L179.519 52.9657L177.837 70.5775L169.171 69.5483L174.66 23.3276L183.211 24.3432ZM180.65 46.8895L180.939 46.9238C182.961 47.1639 184.88 45.8098 185.244 42.7477L185.998 36.3924C186.362 33.3303 184.814 31.5645 182.792 31.3243L182.503 31.29L180.65 46.8895Z" fill="#121212"/>
<path d="M157.219 21.2563L172.818 23.109L171.926 30.6199L164.993 29.7965L163.621 41.3516L169.687 42.0721L168.795 49.583L162.729 48.8625L161.288 60.9954L168.221 61.8188L167.329 69.3296L151.729 67.477L157.219 21.2563Z" fill="#121212"/>
<path d="M133.515 65.314L134.314 19.1222L134.383 18.5444L143.049 19.5737L141.866 44.3343L142.444 44.4029L147.093 20.054L155.76 21.0833L155.691 21.6611L145.648 66.755L133.515 65.314Z" fill="#121212"/>
<path d="M117.809 16.5757L133.408 18.4284L132.516 25.9392L125.583 25.1158L124.211 36.671L130.277 37.3914L129.385 44.9023L123.319 44.1818L121.878 56.3147L128.811 57.1381L127.919 64.649L112.319 62.7963L117.809 16.5757Z" fill="#121212"/>
<path d="M103.334 14.8569C110.614 15.7214 115.556 21.4644 114.493 30.4197C113.807 36.1973 111.689 39.2269 108.141 41.9693L110.162 61.9544L110.093 62.5322L101.716 61.5372L100.508 43.5823L99.6417 43.4793L97.9601 61.0912L89.2938 60.0619L94.7832 13.8413L103.334 14.8569ZM100.773 37.4031L101.062 37.4374C103.084 37.6776 105.003 36.3235 105.367 33.2614L106.122 26.9061C106.485 23.8439 104.937 22.0781 102.915 21.838L102.626 21.8037L100.773 37.4031Z" fill="#121212"/>
<path d="M66.5761 32.1696C68.4631 16.2813 73.5168 10.7295 81.0276 11.6215C88.5385 12.5135 92.1512 19.0946 90.2642 34.983L89.8525 38.4495C87.9655 54.3379 82.9118 59.8897 75.401 58.9976C67.8901 58.1056 64.2774 51.5245 66.1644 35.6362L66.5761 32.1696ZM74.2976 48.5546C74.0712 50.4612 74.8721 51.611 76.2587 51.7757C77.6453 51.9404 78.6932 51.0102 78.9197 49.1036L82.1653 21.7756C82.3917 19.869 81.5908 18.7193 80.2042 18.5546C78.8176 18.3899 77.7697 19.3201 77.5432 21.2267L74.2976 48.5546Z" fill="#121212"/>
<path d="M47.5867 55.1083L53.0762 8.8877L68.6756 10.7404L67.7836 18.2512L60.8505 17.4278L59.4781 28.983L65.2557 29.6691L64.3637 37.18L58.5861 36.4938L56.2531 56.1376L47.5867 55.1083Z" fill="#121212"/>
<path d="M210.348 92.0155L201.682 90.9863L196.193 137.207L212.081 139.094L212.973 131.584L205.751 130.726L210.348 92.0155ZM214.638 123.725L221.861 124.583L219.082 147.982L187.305 144.208L188.249 136.264L194.732 137.034L194.801 136.456L195.888 90.2981L193.738 90.0428L194.682 82.0986L219.236 85.0148L214.638 123.725Z" fill="#E0E0E0"/>
<path d="M188.415 101.422L187.799 117.461L184.679 117.091L187.837 101.354L188.415 101.422ZM181.444 135.456L183.73 124.595L186.965 124.979L186.643 136.073L194.732 137.034L194.801 136.456L195.888 90.2981L183.177 88.7885L173.424 133.917L173.355 134.495L181.444 135.456ZM196.192 137.207L202.676 137.977L201.733 145.921L164.467 141.496L165.411 133.551L171.902 134.322L177.392 88.1014L175.198 87.8408L176.895 79.9862L204.058 83.2122L203.868 91.2458L201.682 90.9862L196.192 137.207Z" fill="#E0E0E0"/>
<path d="M177.391 88.1014L168.725 87.0722L163.236 133.293L171.901 134.322L177.391 88.1014ZM173.423 133.917L173.354 134.495L179.846 135.266L178.902 143.21L154.348 140.294L155.292 132.35L155.822 132.413L160.419 93.7034L166.197 94.3896L167.089 86.8779L160.781 86.1287L161.725 78.1846L186.279 81.1007L185.335 89.0449L183.176 88.7885L173.423 133.917Z" fill="#E0E0E0"/>
<path d="M175.979 79.8774L175.035 87.8216L168.727 87.0724L163.237 133.293L163.768 133.356L162.824 141.301L138.269 138.384L139.213 130.44L139.766 130.506L145.255 84.2848L138.926 83.533L139.869 75.5889L175.979 79.8774ZM155.824 132.413L160.421 93.7036L166.199 94.3898L167.091 86.8781L146.87 84.4765L145.978 91.9882L151.754 92.6743L147.157 131.384L155.824 132.413Z" fill="#E0E0E0"/>
<path d="M145.255 84.2849L137.166 83.3242L135.289 106.538L134.711 106.47L132.545 82.7753L125.034 81.8833L119.544 128.104L127.633 129.065L129.511 105.852L130.089 105.921L132.255 129.614L139.766 130.506L145.255 84.2849ZM145.978 91.9883L151.754 92.6744L147.157 131.384L147.71 131.449L146.766 139.394L110.657 135.105L111.6 127.161L117.704 127.886L118.596 120.375L112.492 119.65L113.933 107.517L119.17 108.139L120.062 100.628L114.825 100.006L116.198 88.4514L122.301 89.1763L123.193 81.6647L117.09 80.9398L118.033 72.9956L154.143 77.2842L153.199 85.2284L146.87 84.4766L145.978 91.9883Z" fill="#E0E0E0"/>
<path d="M132.079 74.664L131.136 82.6081L125.032 81.8833L119.543 128.104L125.647 128.829L124.703 136.773L93.2153 133.034L94.2233 124.546C98.0045 123.173 100.509 119.539 101.143 114.201L105.26 79.535L99.6483 78.8685L100.592 70.9243L132.079 74.664ZM102.103 126.033L117.702 127.886L118.594 120.375L111.661 119.552L113.102 107.418L119.168 108.139L120.06 100.628L113.994 99.9074L115.366 88.3528L122.3 89.1763L123.192 81.6647L107.592 79.812L102.103 126.033Z" fill="#E0E0E0"/>
<path d="M92.1622 115.771C91.8872 117.447 91.139 118.285 89.8393 118.131C88.5394 117.976 88.0076 116.987 88.1329 115.293L88.1664 114.944L92.5511 78.0252L83.8854 76.9961L79.7684 111.662L79.6973 112.359C79.0977 119.488 82.5794 124.3 89.0159 125.065C95.6598 125.853 100.252 121.711 101.144 114.2L105.262 79.5348L96.5959 78.5056L92.2112 115.425L92.1622 115.771ZM102.104 126.033L104.764 126.349C104.115 127.185 103.39 127.973 102.58 128.699C98.5435 132.322 93.3455 133.635 88.0724 133.009C82.799 132.382 78.0526 129.888 74.9764 125.421C74.3598 124.525 73.8392 123.589 73.4037 122.624L77.5891 123.121L78.4811 115.611L71.6493 114.799C71.6002 113.443 71.663 112.076 71.8242 110.718L76.8848 68.1084L114.149 72.5341L113.206 80.4783L107.594 79.8118L102.104 126.033Z" fill="#E0E0E0"/>
<path d="M75.8558 76.0423L67.1901 75.0132L61.7006 121.234L77.589 123.121L78.481 115.611L71.2583 114.753L75.8558 76.0423ZM80.146 107.752L80.2313 107.762L79.7682 111.662C79.0486 117.72 81.1845 122.21 85.5249 124.135L84.5896 132.009L52.813 128.235L56.0895 100.647L61.2854 101.264L62.1774 93.753L56.9815 93.1359L58.3538 81.5813L64.7057 82.3357L65.5978 74.824L59.246 74.0697L60.1895 66.1255L84.7435 69.0417L80.146 107.752Z" fill="#E0E0E0"/>
<path d="M74.4857 67.8236L73.5422 75.7678L67.1904 75.0134L63.0905 109.534L62.5086 109.465L60.1756 129.11L35.6216 126.193L36.5651 118.249L42.2012 118.919L47.6907 72.6975L42.0546 72.0282L42.998 64.084L74.4857 67.8236ZM44.5092 119.193L53.1749 120.222L55.508 100.578L61.2857 101.264L62.1777 93.7532L56.4 93.067L57.7723 81.5125L64.7059 82.336L65.5981 74.8243L49.9987 72.9716L44.5092 119.193Z" fill="#E0E0E0"/>
<path d="M47.6906 72.6975L39.6019 71.7368L37.7241 94.9508L37.1461 94.8821L34.9801 71.1879L27.4694 70.2959L21.9799 116.517L30.0686 117.478L31.9463 94.2646L32.5243 94.3332L34.6904 118.026L42.2011 118.919L47.6906 72.6975ZM44.5091 119.193L50.1453 119.862L49.2018 127.806L13.0923 123.518L14.0358 115.573L19.6603 116.241L25.1498 70.0204L19.5253 69.3524L20.4688 61.4082L56.5783 65.6968L55.6348 73.6409L49.9986 72.9716L44.5091 119.193Z" fill="#E0E0E0"/>
<path d="M25.1488 70.0204L16.4831 68.9912L10.9936 115.212L19.6593 116.241L25.1488 70.0204ZM21.9789 116.517L27.6034 117.185L26.6599 125.129L2.10594 122.213L9.48242 60.1035L34.0364 63.0197L33.0929 70.9639L27.4684 70.2959L21.9789 116.517Z" fill="#E0E0E0"/>
<path d="M182.792 31.3248C184.814 31.565 186.363 33.3306 185.999 36.3927L185.244 42.7484C184.88 45.8103 182.961 47.1643 180.939 46.9242L180.65 46.8898L182.503 31.2905L182.792 31.3248ZM196.971 80.9066L160.284 76.5493L161.227 68.6052L167.331 69.3301L168.223 61.8194L162.119 61.0945L163.56 48.961L168.797 49.5829L169.689 42.0722L164.452 41.4503L165.825 29.8958L171.928 30.6207L172.82 23.109L166.717 22.3841L167.66 14.4399L184.155 16.3989C189.688 17.0561 194.822 19.6631 198.302 24.2678C201.777 28.8669 203.043 34.7085 202.314 40.8499C201.874 44.5502 200.915 47.8596 199.185 50.8377C198.351 52.2734 197.398 53.5221 196.379 54.6319L198.087 71.5116L196.971 80.9066ZM169.171 69.5487L177.837 70.5778L179.519 52.9658L180.386 53.0687L181.593 71.0239L189.97 72.0189L190.039 71.4409L188.018 51.4556C191.455 48.7989 193.55 45.873 194.301 40.4401L194.369 39.9064C195.433 30.9511 190.491 25.2077 183.211 24.3431L174.661 23.3276L169.171 69.5487Z" fill="#E0E0E0"/>
<path d="M181.708 16.1083L180.765 24.0525L174.661 23.3276L169.172 69.5486L175.275 70.2735L174.332 78.2177L142.844 74.478L143.788 66.5339L145.65 66.755L155.692 21.6608L155.761 21.0829L149.277 20.3128L150.221 12.3687L181.708 16.1083ZM151.732 67.4774L167.331 69.33L168.223 61.8194L161.29 60.9959L162.731 48.8624L168.797 49.5829L169.689 42.0722L163.623 41.3517L164.995 29.7972L171.929 30.6206L172.821 23.109L157.221 21.2563L151.732 67.4774Z" fill="#E0E0E0"/>
<path d="M134.383 18.5439L134.315 19.1219L133.516 65.3139L145.649 66.7549L155.692 21.6608L155.761 21.0828L147.094 20.0535L142.445 44.4026L141.867 44.334L143.05 19.5732L134.383 18.5439ZM151.732 67.4773L153.634 67.7033L151.886 75.5518L125.392 72.4053L125.531 64.3656L127.92 64.6493L128.812 57.1386L125.663 56.7646L125.875 44.4852L129.386 44.9022L130.278 37.3915L126.007 36.8842L126.209 25.1906L132.518 25.9399L133.41 18.4283L126.439 17.6004L127.383 9.65625L164.648 14.0821L163.705 22.0263L157.221 21.2562L151.732 67.4773Z" fill="#E0E0E0"/>
<path d="M142.296 11.4277L141.353 19.3718L134.382 18.544L134.314 19.1219L133.515 65.3139L135.863 65.5929L134.92 73.537L103.432 69.7974L104.376 61.8532L110.093 62.5323L110.162 61.9543L108.141 41.969C111.689 39.2265 113.806 36.1973 114.492 30.4197C115.203 24.4342 113.231 19.8842 109.671 17.2662L110.809 7.68799L142.296 11.4277ZM112.32 62.7967L127.919 64.6494L128.811 57.1387L121.877 56.3152L123.318 44.1817L129.385 44.9022L130.277 37.3916L124.211 36.671L125.583 25.1165L132.516 25.94L133.409 18.4283L117.809 16.5757L112.32 62.7967Z" fill="#E0E0E0"/>
<path d="M102.915 21.838C104.937 22.0781 106.486 23.8438 106.122 26.9059L105.367 33.2616C105.003 36.3235 103.084 37.6775 101.062 37.4373L100.773 37.403L102.626 21.8037L102.915 21.838ZM112.32 62.7965L118.038 63.4756L117.094 71.4197L80.4067 67.0625L81.4893 57.9469C85.6635 55.6146 88.5325 49.5602 89.8521 38.4494L90.2638 34.9826C91.5834 23.8714 90.2128 17.3127 86.7007 14.0678L87.7832 4.95312L104.278 6.9121C109.811 7.5693 114.945 10.1763 118.425 14.781C118.917 15.4323 119.363 16.1095 119.767 16.808L117.81 16.5755L112.32 62.7965ZM89.2944 60.0618L97.9601 61.091L99.6417 43.4789L100.509 43.5819L101.716 61.5371L110.094 62.5321L110.162 61.9541L108.141 41.9688C111.578 39.312 113.673 36.3862 114.424 30.9533L114.493 30.4195C115.556 21.4643 110.614 15.7209 103.334 14.8563L94.7839 13.8408L89.2944 60.0618Z" fill="#E0E0E0"/>
<path d="M90.265 34.9827C92.1519 19.0948 88.5394 12.5141 81.0289 11.6219C73.5181 10.7299 68.464 16.2813 66.577 32.1693L66.1652 35.6362C64.2782 51.5245 67.8914 58.1059 75.4022 58.998C82.9129 59.8898 87.9663 54.3376 89.8533 38.4495L90.265 34.9827ZM78.9208 49.1037L78.8689 49.4496C78.5622 51.1221 77.5597 51.9305 76.2599 51.7763C74.8733 51.6116 74.0716 50.4612 74.298 48.5546L77.5436 21.2272C77.7701 19.3206 78.8189 18.39 80.2055 18.5547C81.5919 18.7195 82.3928 19.8697 82.1664 21.7762L78.9208 49.1037ZM89.2956 60.0619L90.8084 60.2416C88.9034 62.6575 86.5153 64.5964 83.6142 65.7932C80.5612 67.0526 77.421 67.2939 74.4587 66.9421C71.4965 66.5903 68.5002 65.6201 65.8271 63.6807C63.1356 61.7279 61.1974 59.1006 59.9079 56.0957C58.4322 52.6569 57.7621 48.6267 57.6801 44.1332L58.5874 36.4936L64.3652 37.1798L65.2572 29.6691L59.4794 28.9829L60.3182 21.9202C60.7192 20.3802 61.1788 18.9142 61.7041 17.5296L67.7854 18.2518L68.6775 10.7402L65.6219 10.3773C67.5269 7.96132 69.9159 6.0225 72.817 4.82576C75.87 3.56652 79.0102 3.32597 81.9724 3.67777C84.9346 4.02964 87.931 4.99881 90.6041 6.93826C93.1442 8.78121 95.0117 11.2256 96.2979 14.0205L94.7851 13.8408L89.2956 60.0619Z" fill="#E0E0E0"/>
<path d="M77.5639 3.73966L76.5874 11.9612C71.5156 13.5496 68.0625 19.6507 66.5757 32.1695L66.1639 35.6363C65.7175 39.3952 65.5794 42.6332 65.7274 45.3981L65.5867 45.3814L63.2537 65.0256L38.6997 62.1094L46.0762 0L77.5639 3.73966ZM47.5874 55.1087L56.253 56.1379L58.5861 36.4937L64.3638 37.1799L65.2558 29.6692L59.4781 28.983L60.8504 17.4285L67.7841 18.252L68.6762 10.7403L53.0768 8.88766L47.5874 55.1087Z" fill="#E0E0E0"/>
<path d="M25.3426 140.215C25.3426 137.107 23.2204 135.146 20.4239 135.146C19.771 135.146 18.1093 135.168 17.5302 135.232L15.5907 147.254C15.9444 147.286 16.5545 147.254 16.8773 147.254C21.4839 147.254 25.3426 144.254 25.3426 140.215ZM59.7383 132.789L55.87 156.395C55.7097 157.359 55.699 157.745 57.5316 157.745L57.07 160.767H53.8877C55.6349 161.571 57.3382 162.825 57.3382 164.475C57.3382 167.636 54.2308 170.153 46.0871 170.153C31.0104 170.153 21.0565 162.46 17.637 150.897H14.9688L13.8115 158.174C13.5967 159.567 13.6181 160.018 16.094 160.178L17.7984 160.295L17.1017 163.853C14.6364 163.702 11.9147 163.573 9.20374 163.585C6.73957 163.585 4.14612 163.713 1.70333 163.853L2.2825 160.295C2.92579 160.263 3.36498 160.263 3.7828 160.22C4.16962 160.188 4.55111 160.108 4.9187 159.985C5.60474 159.77 6.16147 159.331 6.31107 158.441L9.98701 136.272C8.93966 136.456 7.9131 136.743 6.9223 137.13C6.10804 137.45 5.21791 138.19 5.21791 138.79C5.21791 139.048 5.27241 139.24 5.37926 139.412C5.51818 139.626 5.69022 139.819 5.69022 140.108C5.69022 140.311 5.60474 140.429 5.49788 140.569C4.96252 141.213 3.76142 141.726 2.6362 141.726C2.29006 141.726 1.94729 141.658 1.62745 141.525C1.30762 141.393 1.017 141.199 0.772191 140.954C0.527383 140.709 0.333185 140.419 0.20069 140.099C0.0681951 139.779 -2.84601e-08 139.437 0 139.09L0 139.058C0 134.911 5.18692 133.25 8.50809 132.597C12.2421 131.914 16.0276 131.552 19.8233 131.514C27.4851 131.514 33.046 133.904 33.046 139.947C33.046 144.92 29.275 148.134 25.2347 149.505C28.3101 159.097 35.8212 166.297 45.4651 166.297C49.1304 166.297 50.4159 164.732 50.4159 163.2C50.4358 162.575 50.2067 161.968 49.7791 161.512C49.3515 161.056 48.7603 160.789 48.1355 160.769L48.0266 160.768H46.5049L47.0841 157.746C48.1558 157.746 49.3345 157.65 49.5162 156.547L52.2699 139.519C52.3127 139.22 52.1951 139.092 51.8841 139.092H49.3227L49.8271 136.391L59.4284 132.48L59.7393 132.802L59.7383 132.789ZM198.503 157.744L197.925 160.766H187.596L188.099 157.744C189.685 157.744 189.91 157.605 190.114 156.244L191.239 148.808C191.433 147.533 190.66 147.104 189.922 147.104C188.422 147.104 186.869 148.668 186.6 150.469L185.668 156.501C185.529 157.359 185.668 157.744 187.447 157.744L186.976 160.766H176.496L177.032 157.744C178.927 157.744 179.249 157.466 179.432 156.309L180.674 148.647C180.76 148.11 180.674 148.037 180.247 148.037H177.963L178.435 145.4L187.789 141.381L188.069 141.65L187.641 144.007C189.355 142.485 191.251 141.414 193.406 141.414C196.095 141.414 197.896 143.942 197.896 146.643C197.896 147.276 197.841 147.789 197.701 148.69L196.46 156.234C196.245 157.498 196.47 157.733 198.517 157.733L198.503 157.744ZM160.634 142.314L158.856 146.097C158.178 145.823 157.455 145.678 156.723 145.669H154.603L153.167 154.456C152.909 156.032 153.209 156.31 154.024 156.31C154.902 156.31 155.803 155.859 157.421 154.381L158.814 157.123C156.896 159.158 154.453 161.302 151.346 161.302C148.045 161.302 146.588 159.416 146.588 156.426C146.588 155.794 146.697 154.935 146.782 154.337L148.174 145.668L145.743 145.71L146.322 142.389L148.636 142.421L149.183 138.907L155.57 136.313L155.998 136.742L155.098 142.345L160.637 142.303V142.314H160.634ZM147.905 132.832C147.086 135.668 146.428 138.547 145.933 141.457H142.215C142.558 140.225 142.665 139.454 142.676 138.778C142.709 137.17 140.876 136.153 138.155 136.153C135.37 136.153 133.505 137.578 133.472 139.367C133.441 141.061 134.083 141.768 136.227 143.278L139.934 145.904C143.384 148.347 145.462 150.63 145.397 154.572C145.281 161.119 139.729 164.431 132.625 164.431C130.965 164.431 129.582 164.164 128.446 163.896C127.482 163.659 126.551 163.359 125.543 163.359C124.786 163.376 124.044 163.574 123.379 163.937L122.801 163.617C122.331 160.441 121.759 157.282 121.086 154.144L124.965 153.212C125.983 158.012 128.211 160.22 133.045 160.22C136.217 160.22 137.921 158.678 137.964 156.202C138.007 153.823 136.775 152.838 134.523 151.359C133.532 150.73 132.55 150.087 131.577 149.43C130.637 148.819 129.758 148.119 128.952 147.34C128.105 146.475 127.447 145.444 127.021 144.311C126.595 143.178 126.41 141.969 126.477 140.761C126.562 135.618 131.17 131.974 137.417 131.974C140.031 131.974 142.069 132.628 144.425 132.756C145.207 132.788 146.526 132.616 147.361 132.402L147.898 132.831H147.905V132.832ZM81.0512 135.961C81.0512 138.393 78.415 140.524 75.672 140.524C74.2785 140.524 72.6607 139.936 72.6607 137.975C72.6607 135.06 75.6185 133.099 78.072 133.099C79.6909 133.1 81.0512 134.182 81.0512 135.961ZM80.4304 141.651L78.0731 155.966C77.8059 157.574 77.7728 157.744 80.0873 157.744L79.6161 160.766H68.8255L69.2861 157.744C71.0653 157.744 71.5793 157.316 71.7299 156.351L72.93 148.529C72.9941 148.079 73.0048 148.037 72.5442 148.037H70.0694L70.531 145.4L80.1643 141.381L80.4304 141.651ZM70.8398 132.671L67.0463 155.848C66.7674 157.574 66.9501 157.744 68.6748 157.744L68.2036 160.755H57.6812L58.1525 157.744C59.9958 157.744 60.4563 157.391 60.6604 156.083L63.2967 139.71C63.3821 139.175 63.318 139.1 62.9109 139.1H60.467L60.9383 136.421L70.5716 132.413L70.8398 132.681V132.671ZM210.772 147.297C210.718 145.583 210.022 145.091 209.025 145.091C207.889 145.091 206.272 146.484 205.661 149.59L210.772 147.297ZM216.923 148.229L205.158 153.64C205.404 155.655 206.529 157.004 208.372 157.004C210.301 157.004 210.966 155.922 210.966 155.418C210.967 155.2 210.899 154.986 210.772 154.808C210.622 154.595 210.504 154.466 210.504 154.187C210.493 154.017 210.547 153.848 210.655 153.716C210.992 153.357 211.401 153.073 211.855 152.881C212.309 152.689 212.798 152.594 213.291 152.602C214.663 152.602 215.884 153.631 215.884 155.195C215.884 158.592 212.551 161.346 207.334 161.346C202.19 161.346 198.515 158.228 198.515 152.324C198.515 147.042 203.229 141.341 209.112 141.341C214.041 141.34 216.185 143.815 216.923 148.229ZM170.954 148.186C170.954 146.054 170.258 145.091 168.993 145.091C167.149 145.091 165.156 148.991 165.156 154.53C165.156 156.652 165.875 157.584 167.128 157.584C169.078 157.584 170.964 153.084 170.964 148.186M177.65 149.74C177.65 155.549 173.472 161.378 166.829 161.378C161.771 161.378 158.545 158.431 158.545 152.559C158.545 146.569 163.067 141.265 169.304 141.265C174.157 141.265 177.661 144.33 177.661 149.73M112.544 163.746C112.544 163.307 112.136 163.008 111.193 163.008C110.111 163.008 109.018 163.157 107.904 163.157C106.208 163.221 104.522 162.879 102.985 162.16C102.235 162.75 101.785 163.425 101.785 164.4C101.785 165.654 103.424 166.682 105.235 166.682C110.027 166.681 112.544 164.935 112.544 163.746ZM113.627 146.836C113.627 145.765 113.208 144.821 112.34 144.821C110.369 144.821 109.522 148.476 109.522 150.661C109.522 152.183 109.843 152.826 110.883 152.826C112.618 152.826 113.626 148.84 113.626 146.825M125.703 143.665C125.703 144.897 124.61 146.408 123.56 146.408C123.217 146.408 123.098 146.162 122.916 145.904C122.8 145.742 122.635 145.622 122.445 145.562C122.298 145.506 122.141 145.476 121.983 145.475C120.858 145.475 120.055 146.75 120.055 147.876L120.087 148.648C120.069 149.868 119.721 151.06 119.08 152.098C118.237 153.42 117.077 154.508 115.704 155.265C114.332 156.021 112.792 156.421 111.225 156.428C110.033 156.47 108.843 156.299 107.71 155.924C107.516 156.136 107.402 156.409 107.389 156.696C107.389 157.488 108.021 157.66 108.985 157.66C110.99 157.66 112.779 157.36 114.632 157.36C117.804 157.36 120.086 158.924 120.086 161.849C120.086 167.046 112.156 170.208 104.763 170.208C100.37 170.208 96.1375 168.942 96.1375 165.214C96.1375 163.371 97.2093 161.936 99.62 160.767H90.8758L91.3802 157.745C93.138 157.702 93.309 157.575 93.4693 156.46L94.6265 148.734C94.7772 147.78 94.1339 147.106 93.3197 147.106C91.798 147.106 90.2443 148.82 90.0295 150.203L89.0229 156.59C88.8936 157.381 89.0656 157.746 90.7262 157.746L90.2549 160.768H80.237L80.7403 157.746C82.4767 157.746 82.5291 157.489 82.6691 156.59L83.9556 148.617C84.0411 148.082 83.9556 148.039 83.5699 148.039H81.0843L81.5876 145.36L91.1889 141.384L91.4571 141.652L91.0713 143.977C93.0001 142.306 94.9717 141.384 96.7188 141.384C99.7835 141.384 101.283 144.245 101.283 146.87C101.283 147.159 101.208 147.877 101.176 148.156L99.8583 156.396C99.698 157.393 100.394 157.682 101.359 157.746C101.841 155.914 103.202 154.961 104.809 154.307C104.203 153.685 103.728 152.946 103.415 152.136C103.102 151.325 102.957 150.46 102.987 149.591C102.987 144.374 107.691 141.191 112.47 141.191C114.645 141.191 117.346 141.92 118.846 144.201C119.93 142.306 121.482 141.191 123.099 141.191C124.546 141.191 125.692 142.112 125.692 143.657M42.4763 148.186C42.4763 146.054 41.7689 145.091 40.5048 145.091C38.6615 145.091 36.6792 148.991 36.6792 154.53C36.6792 156.652 37.3973 157.595 38.6508 157.595C40.6009 157.595 42.4763 153.094 42.4763 148.186ZM49.1731 149.74C49.1731 155.549 44.9939 161.378 38.3398 161.378C33.2929 161.378 30.0572 158.431 30.0572 152.559C30.0572 146.569 34.5795 141.265 40.8157 141.265C45.681 141.265 49.1742 144.33 49.1742 149.73" fill="#D32531"/>
</svg>
