<svg width="24" height="24" viewBox="0 0 24 24" fill="none" xmlns="http://www.w3.org/2000/svg">
<path d="M17.3038 3.15171C16.2957 2.89947 15.2344 2.96292 14.2636 3.33347C13.2927 3.70403 12.4591 4.36381 11.8754 5.22359C11.3168 6.04655 11.0129 7.01473 11.0002 8.00736C9.90289 7.91247 8.83058 7.60959 7.84152 7.11177C6.56131 6.4674 5.46034 5.51642 4.63664 4.34352C4.4296 4.04871 4.07998 3.88804 3.72142 3.92293C3.36286 3.95783 3.05079 4.18289 2.90447 4.51209C2.92344 4.47185 2.90404 4.51308 2.90404 4.51308L2.90351 4.51426L2.90222 4.51719L2.89867 4.5253L2.88786 4.55047C2.87906 4.57116 2.86715 4.59965 2.85261 4.63554C2.82354 4.70729 2.7839 4.80879 2.73759 4.9369C2.64508 5.19279 2.52524 5.55668 2.4098 6.00308C2.1801 6.89122 1.96122 8.13097 2.02386 9.50909C2.0867 10.8916 2.43432 12.4339 3.35699 13.8908C4.02451 14.9448 4.9732 15.9224 6.27591 16.7532C4.95006 17.3359 3.50205 17.6135 2.03985 17.5554C1.57713 17.537 1.1623 17.8387 1.03725 18.2846C0.912203 18.7304 1.10965 19.2039 1.51446 19.4288C5.88188 21.8551 10.7874 21.8798 14.629 19.8351C18.4951 17.7774 21.1819 13.6773 21.1819 8.10005L21.1819 8.09674C21.1815 7.95984 21.1755 7.82309 21.164 7.68681C22.0379 6.70738 22.6599 5.52619 22.9717 4.24576C23.0703 3.84076 22.9074 3.41706 22.5628 3.1825C22.2183 2.94793 21.7643 2.95171 21.4237 3.19198C20.8009 3.63127 20.125 3.98836 19.4128 4.25506C18.8097 3.72737 18.0875 3.34781 17.3038 3.15171Z" fill="#C1C1BE"/>
</svg>
