<svg width="48" height="48" viewBox="0 0 48 48" fill="none" xmlns="http://www.w3.org/2000/svg">
<circle cx="24" cy="24" r="24" fill="url(#paint0_linear_405_3626)"/>
<path d="M24.5996 0.821289C37.1284 1.13885 47.1875 11.3947 47.1875 24L47.1797 24.5986C46.8621 37.1274 36.6063 47.1865 24.001 47.1865L23.4023 47.1787C11.0724 46.8663 1.13479 36.9285 0.822266 24.5986L0.814453 24C0.814453 11.1945 11.1955 0.813477 24.001 0.813477L24.5996 0.821289ZM24.001 1.31348C11.4716 1.31348 1.31445 11.4706 1.31445 24C1.3145 36.5293 11.4716 46.6865 24.001 46.6865C36.5303 46.6865 46.6875 36.5293 46.6875 24C46.6875 11.4707 36.5303 1.31352 24.001 1.31348ZM24.001 2.03418C36.1324 2.03418 45.9676 11.8686 45.9678 24L45.96 24.5674C45.6592 36.4368 35.9429 45.9668 24.001 45.9668L23.4346 45.959C11.5649 45.6584 2.03516 35.9421 2.03516 24C2.03531 11.8687 11.8697 2.03433 24.001 2.03418ZM24.001 2.53418C12.1458 2.53433 2.53531 12.1448 2.53516 24C2.53516 35.8553 12.1457 45.4666 24.001 45.4668C35.8564 45.4668 45.4678 35.8554 45.4678 24C45.4676 12.1447 35.8563 2.53418 24.001 2.53418ZM24.5352 3.26074C35.7452 3.54477 44.7451 12.7215 44.7451 24L44.7383 24.5352C44.4543 35.7451 35.2784 44.7449 24 44.7451L23.4639 44.7383C12.4319 44.4586 3.54026 35.5672 3.26074 24.5352L3.25391 24C3.25391 12.5424 12.5424 3.25391 24 3.25391L24.5352 3.26074ZM24 3.75391C12.8186 3.75391 3.75391 12.8186 3.75391 24C3.75409 35.1813 12.8187 44.2451 24 44.2451C35.1812 44.2449 44.2449 35.1812 44.2451 24C44.2451 12.8187 35.1813 3.75409 24 3.75391ZM24 4.47461C34.7836 4.47461 43.5254 13.2164 43.5254 24C43.5254 34.7836 34.7836 43.5254 24 43.5254C13.2164 43.5254 4.47461 34.7836 4.47461 24C4.47463 13.2164 13.2164 4.47463 24 4.47461ZM24 4.97461C13.4926 4.97463 4.97463 13.4926 4.97461 24C4.97461 34.5074 13.4926 43.0254 24 43.0254C34.5075 43.0254 43.0254 34.5075 43.0254 24C43.0254 13.4926 34.5074 4.97461 24 4.97461ZM24 5.69531C34.1095 5.69531 42.3054 13.8906 42.3057 24L42.2998 24.4727C42.0491 34.3638 33.9516 42.3057 24 42.3057L23.5283 42.2998C13.637 42.0494 5.69551 33.9516 5.69531 24C5.69553 13.8907 13.8907 5.69553 24 5.69531ZM24 6.19531C14.1668 6.19553 6.19553 14.1668 6.19531 24C6.19551 33.8332 14.1668 41.8054 24 41.8057C33.8334 41.8057 41.8055 33.8333 41.8057 24C41.8054 14.1667 33.8333 6.19531 24 6.19531ZM24.4414 6.9209C33.6734 7.15463 41.0859 14.7117 41.0859 24L41.0801 24.4404C40.8464 33.6724 33.2892 41.0848 24.001 41.085L23.5596 41.0791C14.4743 40.8488 7.15189 33.5258 6.92188 24.4404L6.91602 24C6.91602 14.5644 14.5653 6.91504 24.001 6.91504L24.4414 6.9209ZM24.001 7.41504C14.8415 7.41504 7.41602 14.8405 7.41602 24C7.41613 33.1594 14.8415 40.585 24.001 40.585C33.1603 40.5848 40.5858 33.1593 40.5859 24C40.5859 14.8406 33.1604 7.41516 24.001 7.41504ZM24.001 8.13574C32.7626 8.13574 39.8652 15.2384 39.8652 24C39.8652 32.7617 32.7626 39.8643 24.001 39.8643C15.2394 39.8642 8.13672 32.7616 8.13672 24C8.1368 15.2384 15.2394 8.13582 24.001 8.13574ZM24.001 8.63574C15.5156 8.63582 8.6368 15.5146 8.63672 24C8.63672 32.4855 15.5155 39.3642 24.001 39.3643C32.4865 39.3643 39.3652 32.4855 39.3652 24C39.3652 15.5145 32.4865 8.63574 24.001 8.63574ZM24.3779 9.36133C32.2907 9.56203 38.6436 16.0398 38.6436 24.001L38.6387 24.3789C38.4377 32.2913 31.9608 38.6443 24 38.6445L23.6211 38.6396C15.8342 38.4421 9.55811 32.1657 9.36035 24.3789L9.35547 24.001C9.35547 15.9133 15.9123 9.35645 24 9.35645L24.3779 9.36133ZM24 9.85645C16.1884 9.85645 9.85547 16.1894 9.85547 24.001C9.85598 31.8121 16.1888 38.1445 24 38.1445C31.811 38.1443 38.143 31.8119 38.1436 24.001C38.1436 16.1896 31.8113 9.8567 24 9.85645ZM24.3486 10.5801C31.6021 10.764 37.4258 16.7022 37.4258 24L37.4209 24.3467C37.237 31.6001 31.2997 37.4238 24.002 37.4238L23.6553 37.4189C16.517 37.238 10.763 31.485 10.582 24.3467L10.5781 24C10.5781 16.5863 16.5882 10.5762 24.002 10.5762L24.3486 10.5801ZM24.002 11.0762C16.8644 11.0762 11.0781 16.8624 11.0781 24C11.0782 31.1375 16.8644 36.9238 24.002 36.9238C31.1395 36.9238 36.9257 31.1375 36.9258 24C36.9258 16.8625 31.1395 11.0762 24.002 11.0762ZM24 11.7969C30.7397 11.7969 36.204 17.2604 36.2041 24L36.1992 24.3154C36.032 30.9095 30.6344 36.2041 24 36.2041L23.6855 36.1992C17.0913 36.0323 11.7969 30.6345 11.7969 24C11.797 17.2605 17.2605 11.797 24 11.7969ZM24 12.2969C17.5366 12.297 12.297 17.5366 12.2969 24C12.2969 30.4635 17.5365 35.704 24 35.7041C30.4636 35.7041 35.7041 30.4636 35.7041 24C35.704 17.5365 30.4635 12.2969 24 12.2969ZM24.5654 13.0322C30.3687 13.3262 34.9834 18.1246 34.9834 24.001L34.9697 24.5654C34.6755 30.3684 29.877 34.9832 24.001 34.9834L23.4355 34.9697C17.8196 34.6851 13.317 30.1813 13.0322 24.5654L13.0176 24.001C13.0176 17.9352 17.9352 13.0176 24.001 13.0176L24.5654 13.0322ZM24.001 13.5176C18.2113 13.5176 13.5176 18.2113 13.5176 24.001C13.518 29.7902 18.2116 34.4834 24.001 34.4834C29.7902 34.4832 34.4829 29.7901 34.4834 24.001C34.4834 18.2115 29.7904 13.5178 24.001 13.5176ZM24.001 14.2373C29.3928 14.2373 33.7637 18.6082 33.7637 24C33.7636 29.3917 29.3927 33.7627 24.001 33.7627C18.6092 33.7627 14.2383 29.3917 14.2383 24C14.2383 18.6082 18.6092 14.2373 24.001 14.2373ZM24.001 14.7373C18.8853 14.7373 14.7383 18.8844 14.7383 24C14.7383 29.1156 18.8854 33.2627 24.001 33.2627C29.1166 33.2627 33.2636 29.1156 33.2637 24C33.2637 18.8844 29.1166 14.7373 24.001 14.7373ZM24.001 15.458C28.7187 15.458 32.5437 19.2824 32.5439 24L32.5322 24.4404C32.3032 28.9537 28.5712 32.543 24.001 32.543L23.5615 32.5312C19.0481 32.3023 15.459 28.5703 15.459 24C15.4592 19.2825 19.2835 15.4582 24.001 15.458ZM24.001 15.958C19.5596 15.9582 15.9592 19.5586 15.959 24C15.959 28.4416 19.5595 32.0428 24.001 32.043C28.4427 32.043 32.0439 28.4417 32.0439 24C32.0437 19.5585 28.4425 15.958 24.001 15.958ZM24.3789 16.6875C28.2475 16.8838 31.3242 20.0827 31.3242 24L31.3145 24.377C31.1182 28.2454 27.9192 31.3221 24.002 31.3223L23.625 31.3125C19.8812 31.1228 16.8794 28.1207 16.6895 24.377L16.6797 24C16.6797 19.9562 19.9581 16.6777 24.002 16.6777L24.3789 16.6875ZM24.002 17.1777C20.2342 17.1777 17.1797 20.2323 17.1797 24C17.1798 27.7676 20.2343 30.8223 24.002 30.8223C27.7695 30.8221 30.8241 27.7675 30.8242 24C30.8242 20.2324 27.7696 17.1779 24.002 17.1777Z" fill="url(#paint1_linear_405_3626)"/>
<circle cx="24.0001" cy="24.0001" r="6.1017" fill="#0F0F0F"/>
<defs>
<linearGradient id="paint0_linear_405_3626" x1="24" y1="0" x2="24" y2="48" gradientUnits="userSpaceOnUse">
<stop stop-color="#191919"/>
<stop offset="0.485577" stop-color="#FFCF00"/>
<stop offset="1" stop-color="#191919"/>
</linearGradient>
<linearGradient id="paint1_linear_405_3626" x1="23.1874" y1="-8.55554e-05" x2="23.1874" y2="47.1865" gradientUnits="userSpaceOnUse">
<stop stop-color="#D4AE0C"/>
<stop offset="0.246184" stop-color="#B2920A"/>
<stop offset="0.503577" stop-color="#735D03"/>
<stop offset="0.750536" stop-color="#B2920A"/>
<stop offset="1" stop-color="#D4AE0C"/>
</linearGradient>
</defs>
</svg>
